<?xml version="1.0" encoding="utf-8"?>
<!-- Generator: Adobe Illustrator 25.0.1, SVG Export Plug-In . SVG Version: 6.00 Build 0)  -->
<svg version="1.1" id="Layer_1" xmlns="http://www.w3.org/2000/svg" xmlns:xlink="http://www.w3.org/1999/xlink" x="0px" y="0px"
	 viewBox="0 0 1280 1024" style="enable-background:new 0 0 1280 1024;" xml:space="preserve">
<style type="text/css">
	.st0{fill:#F4F4F9;}
	.st1{fill:url(#SVGID_1_);}
	.st2{display:none;fill:url(#SVGID_2_);}
	.st3{fill:#383838;}
	.st4{fill:#C56959;}
	.st5{fill:#FFC857;}
	.st6{fill:#95190C;}
	.st7{fill:url(#SVGID_3_);}
	.st8{fill:url(#SVGID_4_);}
	.st9{fill:#EDD3B7;}
	.st10{fill:#FFFFFF;}
	.st11{opacity:0.75;fill:#F4F4F9;}
	.st12{fill:none;stroke:#F4F4F9;stroke-width:3;stroke-miterlimit:10;}
	.st13{clip-path:url(#SVGID_6_);fill:url(#SVGID_7_);}
	.st14{fill:url(#SVGID_8_);}
	.st15{fill:url(#SVGID_9_);}
	.st16{fill:url(#SVGID_10_);}
	.st17{fill:url(#SVGID_11_);}
	.st18{fill:url(#SVGID_12_);}
	.st19{fill:url(#SVGID_13_);}
	.st20{fill:url(#SVGID_14_);}
	.st21{fill:url(#SVGID_15_);}
	.st22{fill:url(#SVGID_16_);}
	.st23{fill:url(#SVGID_17_);}
	.st24{fill:url(#SVGID_18_);}
	.st25{fill:url(#SVGID_19_);}
	.st26{fill:url(#SVGID_20_);}
	.st27{fill:url(#SVGID_21_);}
	.st28{fill:url(#SVGID_22_);}
	.st29{fill:url(#SVGID_23_);}
</style>
<rect y="0" class="st0" width="1280" height="1024"/>
<linearGradient id="SVGID_1_" gradientUnits="userSpaceOnUse" x1="670.3172" y1="552.5543" x2="670.3172" y2="785.619">
	<stop  offset="0" style="stop-color:#95190C"/>
	<stop  offset="0.9627" style="stop-color:#FFC857"/>
</linearGradient>
<polygon class="st1" points="744.65,627.75 595.81,594.81 596.04,687.6 744.82,720.67 "/>
<polygon class="st0" points="718.98,632.41 611.98,608.73 612.15,675.44 719.59,702.16 "/>
<linearGradient id="SVGID_2_" gradientUnits="userSpaceOnUse" x1="640" y1="50.5905" x2="640" y2="988.7803">
	<stop  offset="0" style="stop-color:#52315E"/>
	<stop  offset="1" style="stop-color:#F4F4F9"/>
</linearGradient>
<rect y="0" class="st2" width="1280" height="1024"/>
<linearGradient id="SVGID_3_" gradientUnits="userSpaceOnUse" x1="820.8784" y1="24.2103" x2="820.8784" y2="841.9332">
	<stop  offset="0" style="stop-color:#95190C"/>
	<stop  offset="0.9627" style="stop-color:#FFC857"/>
</linearGradient>
<path class="st7" d="M1081.68,288.05l-522.21-115.6l0.82,325.59l522,116L1081.68,288.05z M580.09,360.65l-0.75-164.36l479.15,106.07
	l0.56,164.73L580.09,360.65z"/>
<g>
	<linearGradient id="SVGID_4_" gradientUnits="userSpaceOnUse" x1="628.5375" y1="252.6977" x2="616.4917" y2="999.5344">
		<stop  offset="0" style="stop-color:#95190C"/>
		<stop  offset="0.9627" style="stop-color:#FFC857"/>
	</linearGradient>
	<polygon class="st8" points="497,714.88 643.18,752.64 745.07,720.68 598.7,682.96 	"/>
	<polygon class="st0" points="585.98,689.78 601.4,693.77 612.16,690.39 596.71,686.41 	"/>
	<polygon class="st0" points="604.34,694.68 619.77,698.66 630.52,695.29 615.07,691.31 	"/>
	<polygon class="st0" points="622.84,699.61 638.27,703.59 649.02,700.22 633.57,696.24 	"/>
	<polygon class="st0" points="641.34,704.54 656.77,708.53 667.52,705.16 652.07,701.17 	"/>
	<polygon class="st0" points="659.76,709.54 675.18,713.53 685.94,710.15 670.49,706.17 	"/>
	<polygon class="st0" points="678.88,714.47 694.3,718.46 705.05,715.09 689.61,711.11 	"/>
	<polygon class="st0" points="697.99,719.41 713.42,723.39 724.17,720.02 708.72,716.04 	"/>
	<polygon class="st0" points="562.89,691.97 578.32,695.96 589.07,692.58 573.62,688.6 	"/>
	<polygon class="st0" points="581.26,696.87 596.68,700.85 607.43,697.48 591.99,693.5 	"/>
	<polygon class="st0" points="599.76,701.8 615.18,705.78 625.93,702.41 610.49,698.43 	"/>
	<polygon class="st0" points="618.26,706.73 633.68,710.72 644.43,707.35 628.99,703.36 	"/>
	<polygon class="st0" points="636.67,711.73 652.1,715.71 662.85,712.34 647.4,708.36 	"/>
	<polygon class="st0" points="655.79,716.66 671.21,720.65 681.97,717.28 666.52,713.29 	"/>
	<polygon class="st0" points="674.91,721.6 690.33,725.58 701.08,722.21 685.64,718.23 	"/>
	<polygon class="st0" points="557.91,698.89 573.34,702.88 584.09,699.5 568.64,695.52 	"/>
	<polygon class="st0" points="576.28,703.79 591.7,707.77 602.45,704.4 587.01,700.42 	"/>
	<polygon class="st0" points="594.78,708.72 610.2,712.7 620.95,709.33 605.51,705.35 	"/>
	<polygon class="st0" points="613.28,713.65 628.7,717.64 639.45,714.27 624.01,710.28 	"/>
	<polygon class="st0" points="631.69,718.65 647.12,722.63 657.87,719.26 642.42,715.28 	"/>
	<polygon class="st0" points="650.81,723.58 666.23,727.57 676.99,724.2 661.54,720.21 	"/>
	<polygon class="st0" points="669.93,728.52 685.35,732.5 696.1,729.13 680.66,725.15 	"/>
	<polygon class="st0" points="533.86,700.74 549.29,704.73 560.04,701.35 544.59,697.37 	"/>
	<polygon class="st0" points="552.23,705.64 567.65,709.62 578.4,706.25 562.96,702.27 	"/>
	<polygon class="st0" points="570.73,710.57 586.15,714.55 596.9,711.18 581.46,707.2 	"/>
	<polygon class="st0" points="589.23,715.5 604.65,719.49 615.4,716.12 599.96,712.13 	"/>
	<polygon class="st0" points="607.64,720.5 623.07,724.48 633.82,721.11 618.37,717.13 	"/>
	<polygon class="st0" points="626.76,725.43 642.18,729.42 652.94,726.05 637.49,722.06 	"/>
	<polygon class="st0" points="645.88,730.37 661.3,734.35 672.05,730.98 656.61,727 	"/>
	<polygon class="st0" points="693.19,726.59 708.61,730.57 719.36,727.2 703.92,723.22 	"/>
	<polygon class="st0" points="664.16,735.36 679.58,739.34 690.33,735.97 674.89,731.99 	"/>
	<polygon class="st0" points="550.05,726.26 596.35,738.21 628.62,728.09 582.26,716.14 	"/>
</g>
<path class="st9" d="M1044.72,672.83c0,0-26.22,31.95-43.46,37.91c-17.25,5.95-40.34-49.77-40.34-49.77s13.15-60.03-2.89-39.29
	c-29.47,38.08-26.87-48.98-54.77-1.48c-6.48,11.04,3.92,27.77,27.76,44.79c6.64,4.75,30.08,85.44,57.51,84.73
	c42.77-1.1,72.64-45.09,72.64-45.09L1044.72,672.83z"/>
<g>
	<circle class="st0" cx="915.2" cy="464.1" r="12.79"/>
	<circle class="st0" cx="886.29" cy="484.08" r="12.79"/>
	<circle class="st0" cx="926.56" cy="497.32" r="12.79"/>
	
		<rect x="901.64" y="455.68" transform="matrix(0.5434 0.8395 -0.8395 0.5434 810.3948 -542.4884)" class="st0" width="4.51" height="36.12"/>
	
		<rect x="917.79" y="459.29" transform="matrix(0.8395 -0.5434 0.5434 0.8395 -111.6993 576.6016)" class="st0" width="4.51" height="36.12"/>
	<circle class="st0" cx="899.26" cy="515.13" r="12.79"/>
	<circle class="st0" cx="939.52" cy="528.36" r="12.79"/>
	
		<rect x="914.61" y="486.73" transform="matrix(0.5434 0.8395 -0.8395 0.5434 842.3795 -539.1956)" class="st0" width="4.51" height="36.12"/>
	
		<rect x="930.76" y="490.34" transform="matrix(0.8395 -0.5434 0.5434 0.8395 -126.4906 588.6317)" class="st0" width="4.51" height="36.12"/>
	<circle class="st0" cx="870.22" cy="533.79" r="12.79"/>
	<circle class="st0" cx="910.48" cy="547.03" r="12.79"/>
	
		<rect x="885.57" y="505.39" transform="matrix(0.5434 0.8395 -0.8395 0.5434 844.7877 -506.3004)" class="st0" width="4.51" height="36.12"/>
	
		<rect x="901.72" y="509" transform="matrix(0.8395 -0.5434 0.5434 0.8395 -141.2928 575.8489)" class="st0" width="4.51" height="36.12"/>
	<g>
		<path class="st10" d="M893.14,466.12c0.33-1.55,0.84-2.66,1.53-3.32s1.55-0.88,2.6-0.66c1.05,0.23,1.75,0.78,2.11,1.66
			c0.36,0.88,0.37,2.1,0.03,3.66c-0.33,1.55-0.84,2.66-1.53,3.32c-0.69,0.66-1.56,0.88-2.61,0.65c-1.05-0.22-1.75-0.78-2.1-1.67
			S892.81,467.67,893.14,466.12z M894.82,468.98c0.09,0.54,0.35,0.86,0.79,0.95c0.44,0.09,0.81-0.09,1.11-0.55
			c0.31-0.46,0.58-1.24,0.81-2.33c0.09-0.42,0.15-0.79,0.19-1.13l-2.93,2.86C894.8,468.86,894.81,468.92,894.82,468.98z
			 M896.95,463.64c-0.43-0.09-0.8,0.09-1.11,0.55c-0.31,0.46-0.58,1.24-0.81,2.34c-0.07,0.34-0.13,0.65-0.17,0.94l2.89-2.83
			c0-0.01,0-0.03,0-0.04C897.65,464.05,897.39,463.73,896.95,463.64z"/>
	</g>
	<g>
		<path class="st10" d="M904.79,496.67c0.33-1.55,0.84-2.66,1.53-3.32c0.69-0.66,1.55-0.88,2.6-0.66c1.05,0.23,1.75,0.78,2.11,1.66
			c0.36,0.88,0.37,2.1,0.03,3.66c-0.33,1.55-0.84,2.66-1.53,3.32c-0.69,0.66-1.55,0.88-2.61,0.65c-1.05-0.22-1.75-0.78-2.1-1.67
			S904.45,498.21,904.79,496.67z M906.46,499.53c0.09,0.54,0.35,0.86,0.79,0.95c0.44,0.09,0.81-0.09,1.12-0.55
			c0.3-0.46,0.58-1.23,0.81-2.33c0.09-0.42,0.15-0.79,0.19-1.13l-2.93,2.86C906.44,499.41,906.45,499.47,906.46,499.53z
			 M908.59,494.18c-0.43-0.09-0.8,0.09-1.11,0.55c-0.31,0.46-0.58,1.24-0.81,2.34c-0.07,0.34-0.13,0.65-0.17,0.94l2.89-2.83
			c0-0.01,0-0.03,0-0.04C909.29,494.6,909.03,494.28,908.59,494.18z"/>
	</g>
	<g>
		<path class="st10" d="M876.18,515.89c0.33-1.55,0.84-2.66,1.53-3.32c0.69-0.66,1.55-0.88,2.6-0.66c1.05,0.22,1.75,0.78,2.11,1.66
			c0.36,0.88,0.37,2.1,0.03,3.66c-0.33,1.55-0.84,2.66-1.53,3.32c-0.69,0.66-1.56,0.88-2.61,0.65c-1.05-0.22-1.75-0.78-2.1-1.67
			C875.86,518.66,875.85,517.44,876.18,515.89z M877.85,518.75c0.09,0.54,0.35,0.86,0.79,0.95c0.44,0.09,0.81-0.09,1.11-0.55
			c0.31-0.46,0.58-1.24,0.81-2.33c0.09-0.42,0.15-0.79,0.19-1.13l-2.93,2.86C877.83,518.64,877.84,518.7,877.85,518.75z
			 M879.99,513.41c-0.43-0.09-0.8,0.09-1.11,0.55c-0.31,0.46-0.58,1.24-0.81,2.34c-0.07,0.34-0.13,0.65-0.17,0.94l2.89-2.83
			c0-0.01,0-0.03,0-0.04C880.69,513.82,880.42,513.5,879.99,513.41z"/>
	</g>
	<g>
		<path class="st10" d="M941.28,508.38l2.1,0.45l1.25-5.82l-2.05,0.04l0.34-1.6l2.06-0.02l1.81,0.39l-1.58,7.4l2.1,0.45l-0.33,1.56
			l-6.02-1.29L941.28,508.38z"/>
	</g>
	<g>
		<path class="st10" d="M912.35,529.13l2.1,0.45l1.25-5.82l-2.05,0.04l0.34-1.6l2.06-0.02l1.81,0.39l-1.58,7.4l2.1,0.45l-0.33,1.56
			l-6.02-1.29L912.35,529.13z"/>
	</g>
	<g>
		<path class="st10" d="M927.9,478.9l2.1,0.45l1.25-5.82l-2.05,0.04l0.34-1.6l2.06-0.02l1.81,0.39l-1.58,7.4l2.1,0.45l-0.33,1.56
			l-6.02-1.29L927.9,478.9z"/>
	</g>
</g>
<g>
	
		<rect x="728.99" y="426.31" transform="matrix(0.9743 0.2252 -0.2252 0.9743 118.2437 -158.1272)" class="st11" width="46.41" height="25.78"/>
	
		<rect x="722.41" y="454.78" transform="matrix(0.9743 0.2252 -0.2252 0.9743 124.4866 -155.9135)" class="st11" width="46.41" height="25.78"/>
	
		<rect x="715.83" y="483.25" transform="matrix(0.9743 0.2252 -0.2252 0.9743 130.7295 -153.6999)" class="st0" width="46.41" height="25.78"/>
	<g>
		<path class="st0" d="M711.26,433.39c0.01,0.1,0.02,0.19,0.03,0.27c0.12,0.78,0.49,1.24,1.11,1.39c0.62,0.14,1.16-0.11,1.61-0.76
			c0.45-0.65,0.86-1.76,1.22-3.33c0.14-0.6,0.24-1.13,0.31-1.61L711.26,433.39z"/>
		<path class="st0" d="M715.6,427.42c-0.12-0.78-0.49-1.24-1.12-1.39c-0.62-0.14-1.15,0.11-1.6,0.76c-0.45,0.65-0.86,1.76-1.22,3.34
			c-0.11,0.49-0.2,0.93-0.27,1.34l4.22-3.99C715.6,427.46,715.6,427.44,715.6,427.42z"/>
		<path class="st0" d="M704.02,414.83l-5.81,25.12l25.96,6l5.81-25.12L704.02,414.83z M715.66,436.31c-1,0.93-2.25,1.22-3.76,0.88
			c-1.5-0.35-2.49-1.16-2.98-2.44c-0.49-1.28-0.48-3.03,0.03-5.24c0.51-2.22,1.27-3.8,2.27-4.73c1-0.94,2.25-1.23,3.75-0.88
			c1.5,0.35,2.5,1.16,2.99,2.44c0.49,1.28,0.48,3.03-0.04,5.26C717.42,433.8,716.66,435.38,715.66,436.31z"/>
	</g>
	<path class="st0" d="M697.44,443.3l-5.81,25.12l25.96,6l5.81-25.12L697.44,443.3z M710.52,466.13l-8.61-1.99l0.52-2.23l3,0.69
		l1.92-8.32l-2.94,0.01l0.53-2.28l2.96,0.01l2.59,0.6l-2.45,10.59l3,0.69L710.52,466.13z"/>
	<path class="st0" d="M690.86,471.77l-5.81,25.12l25.96,6l5.81-25.12L690.86,471.77z M703.13,494.34l-8.62-1.99l0.5-2.16l1.79-1.12
		c2.13-1.34,3.42-2.16,3.89-2.48c0.57-0.39,1-0.75,1.28-1.08c0.29-0.33,0.48-0.69,0.56-1.06c0.13-0.57,0.05-1.06-0.24-1.45
		c-0.29-0.4-0.78-0.67-1.45-0.83c-0.48-0.11-1.04-0.15-1.68-0.1c-0.64,0.04-1.32,0.16-2.05,0.35l0.55-2.36
		c0.7-0.07,1.37-0.1,2.02-0.07c0.65,0.03,1.26,0.11,1.83,0.24c1.44,0.33,2.49,0.91,3.17,1.73c0.67,0.82,0.89,1.78,0.63,2.87
		c-0.12,0.5-0.31,0.96-0.6,1.35c-0.28,0.4-0.7,0.82-1.26,1.25c-0.41,0.31-1.5,0.99-3.25,2.02c-0.95,0.56-1.71,1-2.27,1.34l5.72,1.32
		L703.13,494.34z"/>
	<circle class="st0" cx="631.86" cy="436.96" r="16.33"/>
	<g>
		<g>
			<polyline class="st12" points="646.84,441.38 687.87,450.87 680.41,482.63 684.07,483.43 			"/>
			<g>
				<path class="st0" d="M687.96,484.29c-1.98,0.28-4.51,0.94-6.18,1.86l1.78-2.82l-0.44-3.31
					C684.26,481.55,686.28,483.21,687.96,484.29z"/>
			</g>
		</g>
	</g>
	<path class="st11" d="M676.94,404.16c-5.78-1.34-15.02,17.26-20.63,41.54c-5.61,24.28-5.48,45.04,0.3,46.38
		c5.78,1.34,15.02-17.26,20.63-41.54C682.85,426.26,682.72,405.5,676.94,404.16z M675.13,433.13l-0.84,1.84l-3.13-0.72l-3.36,7.32
		l-2.66-0.62l3.36-7.32l-2.48-0.57l0.84-1.84l2.48,0.57l0.3-0.64c0.53-1.15,1.13-1.87,1.78-2.16c0.66-0.29,1.71-0.27,3.16,0.06
		l2.18,0.5l-0.84,1.84l-2.09-0.48c-0.39-0.09-0.7-0.08-0.91,0.04c-0.21,0.12-0.42,0.39-0.62,0.83l-0.3,0.62L675.13,433.13z"/>
</g>
<g>
	<defs>
		<path id="SVGID_5_" d="M157.47,375.39l44.59-15.54v18.43l-67.21,23.42v-17.87l11.34-16.01c13.47-19.01,21.65-30.68,24.53-34.99
			c3.54-5.3,6.1-9.79,7.66-13.48c1.56-3.69,2.34-7.07,2.34-10.14c0-4.73-1.43-7.88-4.29-9.46c-2.86-1.58-6.91-1.46-12.16,0.37
			c-3.73,1.3-7.93,3.51-12.58,6.62c-4.66,3.11-9.51,6.97-14.57,11.56v-19.5c5.06-3.61,10.01-6.74,14.85-9.39
			c4.84-2.66,9.49-4.76,13.93-6.31c11.2-3.9,20-4.36,26.41-1.37c6.4,2.99,9.61,9,9.61,18.03c0,4.16-0.7,8.3-2.09,12.43
			c-1.4,4.13-3.79,9-7.2,14.63c-2.51,4.09-9.38,13.72-20.63,28.88C165.9,363.94,161.06,370.5,157.47,375.39z M222.83,318.23
			c0-18.34,2.91-33.09,8.72-44.26c5.81-11.17,14.56-18.79,26.23-22.86c11.72-4.08,20.49-2.58,26.3,4.52
			c5.81,7.1,8.72,19.84,8.72,38.22c0,18.34-2.91,33.08-8.72,44.23c-5.81,11.15-14.58,18.76-26.3,22.85
			c-11.67,4.07-20.42,2.54-26.23-4.58C225.74,349.23,222.83,336.52,222.83,318.23z M257.78,268.83c-4.82,1.68-8.34,5.86-10.56,12.54
			c-2.22,6.68-3.33,16.52-3.33,29.52c0,4.02,0.09,7.65,0.28,10.89l24.39-47.42c-0.05-0.13-0.09-0.25-0.14-0.38
			C266.19,268.85,262.65,267.13,257.78,268.83z M247.22,338.02c2.22,5.14,5.74,6.86,10.56,5.18c4.87-1.7,8.41-5.88,10.63-12.57
			c2.22-6.68,3.33-16.5,3.33-29.45c0-4.92-0.17-9.25-0.5-13.01l-24.74,48.04C246.75,336.88,246.98,337.49,247.22,338.02z
			 M332.29,314.47l44.59-15.54v18.43l-67.21,23.42v-17.87l11.34-16c13.47-19.01,21.65-30.68,24.53-34.99
			c3.54-5.3,6.1-9.79,7.66-13.48c1.56-3.69,2.34-7.07,2.34-10.14c0-4.73-1.43-7.88-4.29-9.46c-2.86-1.58-6.91-1.46-12.16,0.37
			c-3.73,1.3-7.93,3.51-12.58,6.62c-4.65,3.11-9.51,6.97-14.57,11.56v-19.5c5.06-3.61,10.01-6.74,14.85-9.39
			c4.84-2.66,9.49-4.76,13.93-6.31c11.2-3.9,20-4.36,26.41-1.37c6.4,2.99,9.61,9,9.61,18.03c0,4.16-0.7,8.3-2.09,12.43
			c-1.4,4.13-3.79,9-7.2,14.63c-2.51,4.09-9.38,13.72-20.63,28.88C340.73,303.02,335.88,309.58,332.29,314.47z M427.86,252.25
			l-11.2,3.9v-18.43l11.2-3.9c5.2-1.81,9.23-4.24,12.09-7.3c2.86-3.05,4.29-6.45,4.29-10.18c0-3.92-1.43-6.48-4.29-7.69
			c-2.86-1.2-6.89-0.9-12.09,0.92c-3.97,1.38-8.22,3.36-12.76,5.94c-4.54,2.57-9.24,5.66-14.11,9.24v-19
			c4.87-3.16,9.67-5.96,14.39-8.38s9.26-4.4,13.61-5.91c11.15-3.89,19.85-4.48,26.09-1.79c6.24,2.7,9.36,8.32,9.36,16.87
			c0,6.29-1.8,12.05-5.39,17.3c-3.59,5.25-8.72,9.64-15.38,13.19c7.56-1.31,13.33-0.31,17.3,3.01c3.97,3.32,5.96,8.81,5.96,16.46
			c0,10.26-3.29,19.22-9.85,26.9c-6.57,7.68-16.12,13.7-28.64,18.06c-5.34,1.86-10.6,3.24-15.77,4.15
			c-5.18,0.91-10.13,1.33-14.85,1.28v-19.42c4.44,0.67,9.24,0.69,14.39,0.05c5.15-0.64,10.56-1.94,16.24-3.92
			c5.67-1.98,10.16-4.85,13.47-8.63c3.31-3.78,4.96-7.89,4.96-12.33c0-5.43-1.65-9.05-4.96-10.85
			C438.59,249.99,433.91,250.14,427.86,252.25z M132.47,444.23v-8.73l29.85-10.4v8.73l-9.97,3.48v32.67l9.97-3.48v8.73l-29.85,10.4
			v-8.73l9.97-3.48v-32.67L132.47,444.23z M204.41,459.13c-1.57,1.35-3.21,2.53-4.94,3.53c-1.72,1-3.54,1.84-5.44,2.5
			c-6.76,2.36-11.92,1.93-15.48-1.29c-3.56-3.21-5.34-9.03-5.34-17.45c0-8.44,1.78-15.51,5.34-21.2c3.56-5.69,8.72-9.72,15.48-12.08
			c1.9-0.66,3.73-1.1,5.47-1.3c1.75-0.21,3.38-0.17,4.9,0.1v11.01c-1.7-0.97-3.35-1.54-4.95-1.71c-1.6-0.17-3.25,0.04-4.95,0.63
			c-3.63,1.26-6.36,3.66-8.21,7.18c-1.85,3.52-2.77,8.11-2.77,13.78c0,5.64,0.92,9.58,2.77,11.81c1.85,2.23,4.58,2.72,8.21,1.45
			c1.7-0.59,3.35-1.53,4.95-2.82c1.6-1.29,3.25-3.01,4.95-5.17V459.13z M214.95,406.76l13.6-4.74c6.92-2.41,11.89-2.91,14.93-1.51
			c3.03,1.41,4.55,4.87,4.55,10.4c0,5.53-1.52,10.05-4.55,13.57c-3.03,3.52-8.01,6.49-14.93,8.9l-3.69,1.29v18.77l-9.91,3.45V406.76
			z M224.86,411.64v14.71l4.06-1.42c3.25-1.13,5.52-2.47,6.83-4.03c1.31-1.55,1.96-3.68,1.96-6.39s-0.65-4.38-1.96-5.02
			c-1.31-0.64-3.59-0.4-6.83,0.74L224.86,411.64z M287.22,430.27c-1.57,1.35-3.21,2.53-4.94,3.53c-1.72,1-3.54,1.84-5.44,2.5
			c-6.76,2.36-11.92,1.93-15.48-1.29s-5.34-9.03-5.34-17.45c0-8.44,1.78-15.51,5.34-21.2c3.56-5.69,8.72-9.72,15.48-12.08
			c1.9-0.66,3.73-1.1,5.47-1.3c1.75-0.2,3.38-0.17,4.9,0.1v11.01c-1.7-0.97-3.35-1.55-4.95-1.71c-1.6-0.17-3.25,0.04-4.95,0.63
			c-3.63,1.26-6.36,3.66-8.21,7.18s-2.77,8.11-2.77,13.78c0,5.64,0.92,9.58,2.77,11.81s4.58,2.72,8.21,1.45
			c1.7-0.59,3.35-1.53,4.95-2.82c1.6-1.29,3.25-3.01,4.95-5.17V430.27z M320.77,369.89l12.12-4.22l13.53,45.42l-9.91,3.45
			l-3.09-11.32l-13.26,4.62l-3.02,13.45l-9.91,3.45L320.77,369.89z M326.81,376.85l-4.67,22.15l9.37-3.26L326.81,376.85z
			 M364.66,382.73c-4.99-0.16-8.37-0.98-10.14-2.46c-1.77-1.48-2.65-3.98-2.65-7.52c0-4.54,1.45-8.62,4.37-12.23
			c2.91-3.61,6.91-6.3,11.99-8.07c2.31-0.8,4.61-1.34,6.92-1.62c2.31-0.28,4.59-0.29,6.85-0.05v9.67c-2.13-0.76-4.29-1.15-6.48-1.17
			c-2.19-0.02-4.37,0.35-6.51,1.09c-2.4,0.83-4.23,1.96-5.51,3.36c-1.28,1.41-1.91,3.01-1.91,4.8c0,1.39,0.46,2.37,1.39,2.96
			c0.93,0.58,2.87,0.91,5.83,0.98l4.26,0.13c4.03,0.07,7,1,8.9,2.78c1.9,1.78,2.85,4.52,2.85,8.24c0,5.06-1.5,9.36-4.48,12.9
			c-2.99,3.54-7.51,6.36-13.55,8.47c-2.49,0.87-4.98,1.44-7.47,1.71c-2.5,0.28-4.91,0.24-7.24-0.11v-10.24
			c2.64,0.96,5.2,1.47,7.67,1.52c2.47,0.06,4.92-0.34,7.34-1.18c2.44-0.85,4.33-2.06,5.68-3.64c1.34-1.58,2.02-3.36,2.02-5.35
			c0-1.5-0.45-2.66-1.34-3.48c-0.9-0.82-2.19-1.26-3.9-1.31L364.66,382.73z M394.71,352.85v-8.73l29.85-10.4v8.73l-9.97,3.48v32.67
			l9.97-3.48v8.73l-29.85,10.4v-8.73l9.97-3.48v-32.67L394.71,352.85z M444.99,326.6l12.12-4.22l13.53,45.42l-9.91,3.45l-3.09-11.32
			l-13.26,4.62L441.36,378l-9.91,3.45L444.99,326.6z M451.03,333.56l-4.67,22.15l9.37-3.27L451.03,333.56z M131.3,493.22l9.91-3.45
			v19.11l12.39-4.32v-19.11l9.91-3.45v50.14l-9.91,3.45v-22.3l-12.39,4.32v22.3l-9.91,3.45V493.22z M171.19,504.44
			c0-8.57,1.48-15.57,4.45-20.99c2.97-5.42,7.35-9.14,13.15-11.16c5.82-2.03,10.21-1.36,13.18,1.99c2.97,3.36,4.45,9.32,4.45,17.89
			c0,8.55-1.48,15.54-4.45,20.96c-2.97,5.42-7.36,9.15-13.18,11.17c-5.8,2.02-10.18,1.35-13.15-2
			C172.68,518.95,171.19,512.99,171.19,504.44z M188.79,481.18c-2.53,0.88-4.38,2.88-5.54,5.98c-1.16,3.1-1.75,7.67-1.75,13.69
			c0,6,0.58,10.15,1.75,12.44c1.16,2.29,3.01,3,5.54,2.12c2.55-0.89,4.41-2.88,5.57-5.99c1.16-3.1,1.75-7.66,1.75-13.66
			c0-6.02-0.58-10.18-1.75-12.47C193.2,480.99,191.34,480.29,188.79,481.18z M213.51,464.58l10.65-3.71l13.97,31.57V456l8.73-3.04
			v50.14l-10.58,3.69l-14.04-31.55v36.44l-8.73,3.04V464.58z M280.2,482.41v-9.57l-6.78,2.36v-8.33l15.45-5.38v22.97
			c-1.9,2.3-4,4.27-6.3,5.91c-2.3,1.64-4.75,2.91-7.37,3.83c-6.49,2.26-11.51,1.75-15.05-1.52c-3.54-3.28-5.31-9.07-5.31-17.38
			c0-8.44,1.78-15.51,5.36-21.21c3.57-5.7,8.73-9.72,15.46-12.07c2.01-0.7,4-1.11,5.94-1.21c1.95-0.11,3.77,0.08,5.47,0.56v10.98
			c-1.39-1.31-2.98-2.1-4.79-2.38c-1.8-0.28-3.78-0.04-5.93,0.71c-3.76,1.31-6.57,3.71-8.43,7.19c-1.86,3.48-2.79,8.1-2.79,13.85
			c0,5.57,0.9,9.5,2.69,11.79c1.79,2.29,4.4,2.83,7.82,1.64c1.03-0.36,1.93-0.77,2.69-1.22
			C279.11,483.45,279.73,482.95,280.2,482.41z M310.05,430.93l9.91-3.45v19.81l15.51-25.22l11.22-3.91l-15.82,25.26l16.39,24.68
			l-11.01,3.84l-11.89-18.43l-4.4,7.11v16.99l-9.91,3.45V430.93z M350.62,441.92c0-8.57,1.48-15.57,4.45-20.99
			c2.97-5.42,7.35-9.14,13.15-11.16c5.82-2.03,10.21-1.36,13.18,1.99c2.97,3.35,4.45,9.32,4.45,17.89c0,8.55-1.48,15.54-4.45,20.96
			c-2.97,5.42-7.36,9.15-13.18,11.17c-5.8,2.02-10.18,1.35-13.15-2C352.1,456.42,350.62,450.47,350.62,441.92z M368.22,418.66
			c-2.53,0.88-4.38,2.88-5.54,5.98c-1.17,3.1-1.75,7.67-1.75,13.69c0,6,0.58,10.15,1.75,12.44c1.16,2.29,3.01,3,5.54,2.12
			c2.55-0.89,4.41-2.88,5.57-5.99c1.16-3.1,1.75-7.66,1.75-13.66c0-6.02-0.58-10.18-1.75-12.47
			C372.63,418.47,370.77,417.77,368.22,418.66z M392.93,402.05l10.65-3.71l13.97,31.57v-36.44l8.73-3.04v50.14l-10.58,3.69
			l-14.04-31.55v36.44l-8.73,3.04V402.05z M459.63,419.88v-9.57l-6.78,2.36v-8.33l15.45-5.38v22.97c-1.9,2.3-4,4.27-6.3,5.9
			c-2.3,1.64-4.75,2.91-7.37,3.83c-6.49,2.26-11.51,1.76-15.05-1.52c-3.54-3.28-5.31-9.07-5.31-17.38c0-8.44,1.78-15.51,5.36-21.21
			c3.57-5.7,8.73-9.72,15.46-12.07c2.01-0.7,4-1.11,5.94-1.21c1.95-0.11,3.77,0.08,5.47,0.56v10.98c-1.39-1.31-2.98-2.1-4.79-2.38
			c-1.8-0.28-3.78-0.04-5.93,0.71c-3.76,1.31-6.57,3.71-8.43,7.19c-1.86,3.48-2.79,8.1-2.79,13.85c0,5.57,0.9,9.51,2.69,11.79
			c1.79,2.29,4.4,2.83,7.82,1.64c1.03-0.36,1.93-0.77,2.69-1.22C458.54,420.93,459.16,420.43,459.63,419.88z M154.93,589.75
			c1.03-0.15,1.92,0.03,2.68,0.52c0.76,0.49,1.68,1.65,2.78,3.46l9.45,15.49l-11.33,3.95l-6.3-10.99c-0.19-0.31-0.43-0.74-0.73-1.28
			c-1.84-3.3-4.01-4.51-6.51-3.64l-3.29,1.15v20.64l-10.32,3.6V570.4l14.9-5.19c6.72-2.34,11.54-2.83,14.46-1.47
			c2.93,1.36,4.39,4.72,4.39,10.08c0,3.59-0.87,6.75-2.62,9.48C160.73,586.03,158.21,588.18,154.93,589.75z M141.67,575.48v14.24
			l4.86-1.69c2.82-0.98,4.84-2.24,6.07-3.78c1.22-1.53,1.84-3.57,1.84-6.11s-0.61-4.15-1.82-4.82s-3.24-0.51-6.09,0.48
			L141.67,575.48z M208.24,595.83l-32.53,11.34v-52.23l32.53-11.34v9.09l-22.21,7.74v11.26l20.11-7.01v9.1l-20.11,7.01v13.68
			l22.21-7.74V595.83z M243.46,574.11v-9.97l-7.07,2.46v-8.67l16.09-5.61v23.93c-1.98,2.39-4.17,4.44-6.56,6.15
			c-2.39,1.71-4.95,3.04-7.68,3.99c-6.76,2.36-11.99,1.83-15.67-1.59c-3.68-3.42-5.53-9.45-5.53-18.1c0-8.79,1.86-16.16,5.58-22.09
			c3.72-5.94,9.09-10.13,16.11-12.58c2.1-0.73,4.16-1.15,6.19-1.26s3.93,0.08,5.7,0.58v11.44c-1.45-1.36-3.11-2.19-4.98-2.48
			c-1.88-0.29-3.94-0.04-6.17,0.74c-3.92,1.37-6.84,3.86-8.78,7.48c-1.94,3.62-2.9,8.43-2.9,14.43c0,5.81,0.93,9.9,2.8,12.28
			c1.86,2.38,4.58,2.95,8.15,1.71c1.07-0.37,2-0.8,2.8-1.27C242.33,575.2,242.97,574.68,243.46,574.11z M262.11,533.93v-9.09
			l31.1-10.84v9.09l-10.39,3.62v34.04l10.39-3.62v9.09l-31.1,10.84v-9.09l10.39-3.62v-34.04L262.11,533.93z M302.44,536.95
			c0-8.93,1.54-16.22,4.63-21.87c3.09-5.65,7.65-9.52,13.7-11.63c6.06-2.11,10.64-1.42,13.73,2.07c3.09,3.5,4.63,9.71,4.63,18.64
			c0,8.91-1.55,16.19-4.63,21.83c-3.09,5.65-7.67,9.53-13.73,11.64c-6.04,2.1-10.6,1.41-13.7-2.08
			C303.99,552.06,302.44,545.85,302.44,536.95z M320.77,512.72c-2.64,0.92-4.56,2.99-5.77,6.23c-1.21,3.23-1.82,7.99-1.82,14.26
			c0,6.25,0.61,10.57,1.82,12.96c1.21,2.39,3.14,3.12,5.77,2.2c2.66-0.93,4.59-3,5.81-6.24c1.21-3.23,1.82-7.97,1.82-14.22
			c0-6.27-0.61-10.6-1.82-12.99C325.37,512.52,323.43,511.79,320.77,512.72z M346.52,495.42l11.09-3.86l14.55,32.88v-37.95l9.1-3.17
			v52.23l-11.02,3.84l-14.62-32.86v37.96l-9.1,3.17V495.42z M400.74,476.53l12.63-4.4l14.1,47.31l-10.32,3.6l-3.22-11.79
			l-13.82,4.81l-3.15,14.01l-10.32,3.6L400.74,476.53z M407.04,483.78l-4.86,23.07l9.76-3.4L407.04,483.78z M436.49,516.3v-52.23
			l10.32-3.6v43.13l22.07-7.69v9.09L436.49,516.3z"/>
	</defs>
	<clipPath id="SVGID_6_">
		<use xlink:href="#SVGID_5_"  style="overflow:visible;"/>
	</clipPath>
	<linearGradient id="SVGID_7_" gradientUnits="userSpaceOnUse" x1="712.2886" y1="42.0175" x2="712.2886" y2="1071.5253">
		<stop  offset="0" style="stop-color:#95190C"/>
		<stop  offset="0.9627" style="stop-color:#FFC857"/>
	</linearGradient>
	<rect x="72.29" y="36" class="st13" width="1280" height="1024"/>
</g>
<g>
	<linearGradient id="SVGID_8_" gradientUnits="userSpaceOnUse" x1="780.1839" y1="-124.0617" x2="774.9226" y2="1249.1398">
		<stop  offset="0" style="stop-color:#95190C"/>
		<stop  offset="0.9627" style="stop-color:#FFC857"/>
	</linearGradient>
	<path class="st14" d="M883.07,791.75c5.48-59.29-86.48-171-86.48-171s-110.25,61.77-126.52,171H883.07z"/>
	<path class="st9" d="M749.57,658.35c70.38,66.65,182.25-58.27,92.84-146.12S673.08,585.92,749.57,658.35z"/>
	<path class="st3" d="M846.86,479.22c-21.11-18.14-51.55-22.87-78.15-12.96c-39.82,14.84-110.8,93.77-47.8,174.77
		c42.81,55.05-14.3,72,72,99c106.09,33.19-25-76-25-76s31.99,2.07,65.25-18C892.82,610.03,900.96,525.71,846.86,479.22z"/>
</g>
<g>
	<path class="st9" d="M1030.1,486.41c85.5,0,106.88,21.38,106.88,85.5s-42.75,85.5-85.5,85.5c-42.75,0-85.5-42.75-85.5-85.5
		S987.35,486.41,1030.1,486.41z"/>
	<path class="st9" d="M1010.98,630.41c0,0,18,18,18,54c0,18,72,0,72-9s0-54-27-54S1010.98,630.41,1010.98,630.41z"/>
	<path class="st3" d="M1036.47,532.38c-22.68-5.55-43.61-16.79-59.96-33.45c-6.09-6.2-12.14-12.19-10.53-14.52
		c36-52,206.87-8.06,185.46,58.08c-9.03,27.88-14.46,56.8-14.46,86.11v18.29c0,5.14-7.34,6.06-8.59,1.07
		C1117.29,603.92,1092.26,546.02,1036.47,532.38z"/>
	<path class="st9" d="M1072.98,560.41c0,0,36-27,45,0s-27,45-27,45L1072.98,560.41z"/>
	
		<ellipse transform="matrix(0.1193 -0.9929 0.9929 0.1193 325.2009 1471.3591)" class="st3" cx="991.98" cy="552.37" rx="13.5" ry="9"/>
	<path class="st3" d="M984.97,539.21c-1.04,2.95,9.38-0.59,23.41,19.29c1.65,2.34,1.79-6.18,0.39-8.77
		c-1.29-2.38-3.31-5.5-5.83-7.28C995.63,537.26,985.65,537.26,984.97,539.21z"/>
	<path class="st4" d="M992.98,612.41c9,0,17.77-2.7,18-10c0.14-4.3-9,10-27,0C977.59,598.87,983.98,612.41,992.98,612.41z"/>
	<path class="st9" d="M969.91,549.41l-13.29,25.92c-4.49,8.77,2.04,19.08,12.09,19.08h24.26"/>
	<linearGradient id="SVGID_9_" gradientUnits="userSpaceOnUse" x1="1058.524" y1="-94.5782" x2="1058.524" y2="1091.8468">
		<stop  offset="0" style="stop-color:#95190C"/>
		<stop  offset="0.9627" style="stop-color:#FFC857"/>
	</linearGradient>
	<path class="st15" d="M1053.98,792.41l91.43-12.19c-5.21-131.8-44.43-131.81-44.43-131.81c-81.53-6.79-116.9,94.13-129.34,144
		H1053.98z"/>
</g>
<g>
	<path class="st9" d="M574.99,679.46c0,0-26.01,22.94-26.01,76.94l-81-36c0,0,9-27,45-54S574.99,679.46,574.99,679.46z"/>
	<path class="st9" d="M632.39,540.4c0,0-133.07-1.64-133.07,104.42c0,39.86,39.65,41.43,75.67,34.65
		c33.28-6.27,57.4-35.3,57.4-69.16V540.4z"/>
	<path class="st9" d="M575.49,593.57c0,0-45.52,0-45.52,22.76s34.14,45.52,34.14,45.52L575.49,593.57z"/>
	<circle class="st3" cx="612.37" cy="591.83" r="9"/>
	<path class="st3" d="M591.17,591.41c0.84,2.36,6.82-6.14,28.46-3.2c2.55,0.35-2.05-4.71-4.54-5.36c-2.29-0.59-5.55-1.16-8.45-0.65
		C598.21,583.68,590.62,589.84,591.17,591.41z"/>
	<path class="st4" d="M585.39,633.25c2.49-2.09,2.67,8.91,26.72,14.31c2.84,0.64-5.36,4.01-8.35,3.7c-2.75-0.28-6.46-0.97-9.05-2.62
		C587.18,643.86,583.74,634.63,585.39,633.25z"/>
	<path class="st9" d="M632.42,607.51l6.59,13.18c2.23,4.46-1.01,9.7-6,9.7h-12.04"/>
	<linearGradient id="SVGID_10_" gradientUnits="userSpaceOnUse" x1="524.5623" y1="-87.3513" x2="514.0397" y2="1267.4357">
		<stop  offset="0" style="stop-color:#95190C"/>
		<stop  offset="0.9627" style="stop-color:#FFC857"/>
	</linearGradient>
	<path class="st16" d="M557.98,792.4h52.86c-4.9-56.92-26.85-117-88.86-117c-71.55,0-91.74,59.24-97.23,99.24L557.98,792.4z"/>
	<path class="st3" d="M636.96,506.8c8,20.34-0.36,43.45-19.47,54.05c-18.02,10-40.86,25.33-53.37,44.1
		c-22.76,34.14,11.38,79.66-68.28,79.66S354.22,475.98,586.87,468.4C586.87,468.4,621.86,468.4,636.96,506.8z"/>
</g>
<linearGradient id="SVGID_11_" gradientUnits="userSpaceOnUse" x1="606.1312" y1="204.9295" x2="606.1312" y2="256.1084">
	<stop  offset="0" style="stop-color:#95190C"/>
	<stop  offset="0.9627" style="stop-color:#FFC857"/>
</linearGradient>
<circle class="st17" cx="606.13" cy="228.03" r="13.82"/>
<linearGradient id="SVGID_12_" gradientUnits="userSpaceOnUse" x1="643.3361" y1="213.0082" x2="643.3361" y2="264.1872">
	<stop  offset="0" style="stop-color:#95190C"/>
	<stop  offset="0.9627" style="stop-color:#FFC857"/>
</linearGradient>
<circle class="st18" cx="643.34" cy="236.11" r="13.82"/>
<linearGradient id="SVGID_13_" gradientUnits="userSpaceOnUse" x1="679.9032" y1="221.7248" x2="679.9032" y2="272.9037">
	<stop  offset="0" style="stop-color:#95190C"/>
	<stop  offset="0.9627" style="stop-color:#FFC857"/>
</linearGradient>
<circle class="st19" cx="679.9" cy="244.82" r="13.82"/>
<linearGradient id="SVGID_14_" gradientUnits="userSpaceOnUse" x1="840.6207" y1="252.0488" x2="840.6207" y2="388.3604">
	<stop  offset="0" style="stop-color:#95190C"/>
	<stop  offset="0.9627" style="stop-color:#FFC857"/>
</linearGradient>
<path class="st20" d="M985.6,341.02l-290.3-64.26l0.46,9.13l290.18,64.48L985.6,341.02z"/>
<linearGradient id="SVGID_15_" gradientUnits="userSpaceOnUse" x1="840.1115" y1="271.5474" x2="840.1115" y2="407.8591">
	<stop  offset="0" style="stop-color:#95190C"/>
	<stop  offset="0.9627" style="stop-color:#FFC857"/>
</linearGradient>
<path class="st21" d="M985.09,360.52l-290.3-64.26l0.46,9.13l290.18,64.48L985.09,360.52z"/>
<linearGradient id="SVGID_16_" gradientUnits="userSpaceOnUse" x1="813.2225" y1="285.9001" x2="813.2225" y2="422.2117">
	<stop  offset="0" style="stop-color:#95190C"/>
	<stop  offset="0.9627" style="stop-color:#FFC857"/>
</linearGradient>
<path class="st22" d="M958.2,374.87l-290.3-64.26l0.46,9.13l290.18,64.48L958.2,374.87z"/>
<linearGradient id="SVGID_17_" gradientUnits="userSpaceOnUse" x1="840.1115" y1="311.0378" x2="840.1115" y2="447.3495">
	<stop  offset="0" style="stop-color:#95190C"/>
	<stop  offset="0.9627" style="stop-color:#FFC857"/>
</linearGradient>
<path class="st23" d="M985.09,400.01l-290.3-64.26l0.46,9.13l290.18,64.48L985.09,400.01z"/>
<linearGradient id="SVGID_18_" gradientUnits="userSpaceOnUse" x1="812.6196" y1="323.954" x2="812.6196" y2="460.2657">
	<stop  offset="0" style="stop-color:#95190C"/>
	<stop  offset="0.9627" style="stop-color:#FFC857"/>
</linearGradient>
<path class="st24" d="M957.6,412.93l-290.3-64.26l0.46,9.13l290.18,64.48L957.6,412.93z"/>
<linearGradient id="SVGID_19_" gradientUnits="userSpaceOnUse" x1="667.3568" y1="259.5096" x2="667.3568" y2="294.933">
	<stop  offset="0" style="stop-color:#95190C"/>
	<stop  offset="0.9627" style="stop-color:#FFC857"/>
</linearGradient>
<path class="st25" d="M690.04,275.71l-45.7-9.78l0.46,9.13l45.58,10L690.04,275.71z"/>
<linearGradient id="SVGID_20_" gradientUnits="userSpaceOnUse" x1="666.7737" y1="278.4556" x2="666.7737" y2="313.879">
	<stop  offset="0" style="stop-color:#95190C"/>
	<stop  offset="0.9627" style="stop-color:#FFC857"/>
</linearGradient>
<path class="st26" d="M689.45,294.66l-45.7-9.78l0.46,9.13l45.58,10L689.45,294.66z"/>
<linearGradient id="SVGID_21_" gradientUnits="userSpaceOnUse" x1="667.0787" y1="318.7058" x2="667.0787" y2="354.1292">
	<stop  offset="0" style="stop-color:#95190C"/>
	<stop  offset="0.9627" style="stop-color:#FFC857"/>
</linearGradient>
<path class="st27" d="M689.76,334.91l-45.7-9.78l0.46,9.13l45.58,10L689.76,334.91z"/>
</svg>
