<?xml version="1.0" encoding="UTF-8" standalone="no"?>
<!DOCTYPE svg PUBLIC "-//W3C//DTD SVG 1.1//EN" "http://www.w3.org/Graphics/SVG/1.1/DTD/svg11.dtd">
<!-- Created with Vectornator (http://vectornator.io/) -->
<svg height="100%" stroke-miterlimit="10" style="fill-rule:nonzero;clip-rule:evenodd;stroke-linecap:round;stroke-linejoin:round;" version="1.1" viewBox="0 0 1021.99 619.96" width="100%" xml:space="preserve" xmlns="http://www.w3.org/2000/svg" xmlns:vectornator="http://vectornator.io" xmlns:xlink="http://www.w3.org/1999/xlink">
<defs>
<linearGradient gradientTransform="matrix(1 0 0 1 -131.3 -172.45)" gradientUnits="userSpaceOnUse" id="LinearGradient" x1="670.317" x2="670.317" y1="552.554" y2="785.619">
<stop offset="0" stop-color="#95190c"/>
<stop offset="0.9627" stop-color="#ffc857"/>
</linearGradient>
<linearGradient gradientTransform="matrix(1 0 0 1 0 0)" gradientUnits="userSpaceOnUse" id="LinearGradient_2" x1="640" x2="640" y1="50.5905" y2="988.78">
<stop offset="0" stop-color="#52315e"/>
<stop offset="1" stop-color="#f4f4f9"/>
</linearGradient>
<linearGradient gradientTransform="matrix(1 0 0 1 -131.3 -172.45)" gradientUnits="userSpaceOnUse" id="LinearGradient_3" x1="820.878" x2="820.878" y1="24.2103" y2="841.933">
<stop offset="0" stop-color="#95190c"/>
<stop offset="0.9627" stop-color="#ffc857"/>
</linearGradient>
<linearGradient gradientTransform="matrix(1 0 0 1 -131.3 -172.45)" gradientUnits="userSpaceOnUse" id="LinearGradient_4" x1="628.537" x2="616.492" y1="252.698" y2="999.534">
<stop offset="0" stop-color="#95190c"/>
<stop offset="0.9627" stop-color="#ffc857"/>
</linearGradient>
<linearGradient gradientTransform="matrix(1 0 0 1 -131.3 -172.45)" gradientUnits="userSpaceOnUse" id="LinearGradient_5" x1="712.289" x2="712.289" y1="42.0175" y2="1071.53">
<stop offset="0" stop-color="#95190c"/>
<stop offset="0.9627" stop-color="#ffc857"/>
</linearGradient>
<linearGradient gradientTransform="matrix(1 0 0 1 -131.3 -172.45)" gradientUnits="userSpaceOnUse" id="LinearGradient_6" x1="780.184" x2="774.923" y1="-124.062" y2="1249.14">
<stop offset="0" stop-color="#95190c"/>
<stop offset="0.9627" stop-color="#ffc857"/>
</linearGradient>
<linearGradient gradientTransform="matrix(1 0 0 1 -131.3 -172.45)" gradientUnits="userSpaceOnUse" id="LinearGradient_7" x1="1058.52" x2="1058.52" y1="-94.5782" y2="1091.85">
<stop offset="0" stop-color="#95190c"/>
<stop offset="0.9627" stop-color="#ffc857"/>
</linearGradient>
<linearGradient gradientTransform="matrix(1 0 0 1 -131.3 -172.45)" gradientUnits="userSpaceOnUse" id="LinearGradient_8" x1="524.562" x2="514.04" y1="-87.3513" y2="1267.44">
<stop offset="0" stop-color="#95190c"/>
<stop offset="0.9627" stop-color="#ffc857"/>
</linearGradient>
<linearGradient gradientTransform="matrix(1 0 0 1 -131.3 -172.45)" gradientUnits="userSpaceOnUse" id="LinearGradient_9" x1="606.131" x2="606.131" y1="204.93" y2="256.108">
<stop offset="0" stop-color="#95190c"/>
<stop offset="0.9627" stop-color="#ffc857"/>
</linearGradient>
<linearGradient gradientTransform="matrix(1 0 0 1 -131.3 -172.45)" gradientUnits="userSpaceOnUse" id="LinearGradient_10" x1="643.336" x2="643.336" y1="213.008" y2="264.187">
<stop offset="0" stop-color="#95190c"/>
<stop offset="0.9627" stop-color="#ffc857"/>
</linearGradient>
<linearGradient gradientTransform="matrix(1 0 0 1 -131.3 -172.45)" gradientUnits="userSpaceOnUse" id="LinearGradient_11" x1="679.903" x2="679.903" y1="221.725" y2="272.904">
<stop offset="0" stop-color="#95190c"/>
<stop offset="0.9627" stop-color="#ffc857"/>
</linearGradient>
<linearGradient gradientTransform="matrix(1 0 0 1 -131.3 -172.45)" gradientUnits="userSpaceOnUse" id="LinearGradient_12" x1="840.621" x2="840.621" y1="252.049" y2="388.36">
<stop offset="0" stop-color="#95190c"/>
<stop offset="0.9627" stop-color="#ffc857"/>
</linearGradient>
<linearGradient gradientTransform="matrix(1 0 0 1 -131.3 -172.45)" gradientUnits="userSpaceOnUse" id="LinearGradient_13" x1="840.112" x2="840.112" y1="271.547" y2="407.859">
<stop offset="0" stop-color="#95190c"/>
<stop offset="0.9627" stop-color="#ffc857"/>
</linearGradient>
<linearGradient gradientTransform="matrix(1 0 0 1 -131.3 -172.45)" gradientUnits="userSpaceOnUse" id="LinearGradient_14" x1="813.222" x2="813.222" y1="285.9" y2="422.212">
<stop offset="0" stop-color="#95190c"/>
<stop offset="0.9627" stop-color="#ffc857"/>
</linearGradient>
<linearGradient gradientTransform="matrix(1 0 0 1 -131.3 -172.45)" gradientUnits="userSpaceOnUse" id="LinearGradient_15" x1="840.112" x2="840.112" y1="311.038" y2="447.349">
<stop offset="0" stop-color="#95190c"/>
<stop offset="0.9627" stop-color="#ffc857"/>
</linearGradient>
<linearGradient gradientTransform="matrix(1 0 0 1 -131.3 -172.45)" gradientUnits="userSpaceOnUse" id="LinearGradient_16" x1="812.62" x2="812.62" y1="323.954" y2="460.266">
<stop offset="0" stop-color="#95190c"/>
<stop offset="0.9627" stop-color="#ffc857"/>
</linearGradient>
<linearGradient gradientTransform="matrix(1 0 0 1 -131.3 -172.45)" gradientUnits="userSpaceOnUse" id="LinearGradient_17" x1="667.357" x2="667.357" y1="259.51" y2="294.933">
<stop offset="0" stop-color="#95190c"/>
<stop offset="0.9627" stop-color="#ffc857"/>
</linearGradient>
<linearGradient gradientTransform="matrix(1 0 0 1 -131.3 -172.45)" gradientUnits="userSpaceOnUse" id="LinearGradient_18" x1="666.774" x2="666.774" y1="278.456" y2="313.879">
<stop offset="0" stop-color="#95190c"/>
<stop offset="0.9627" stop-color="#ffc857"/>
</linearGradient>
<linearGradient gradientTransform="matrix(1 0 0 1 -131.3 -172.45)" gradientUnits="userSpaceOnUse" id="LinearGradient_19" x1="667.079" x2="667.079" y1="318.706" y2="354.129">
<stop offset="0" stop-color="#95190c"/>
<stop offset="0.9627" stop-color="#ffc857"/>
</linearGradient>
</defs>
<clipPath id="ArtboardFrame">
<rect height="619.96" width="1021.99" x="0" y="0"/>
</clipPath>
<g clip-path="url(#ArtboardFrame)" id="Untitled" vectornator:layerName="Untitled">
<path d="M613.35 455.3L464.51 422.36L464.74 515.15L613.52 548.22L613.35 455.3Z" fill="url(#LinearGradient)" fill-rule="nonzero" opacity="1" stroke="none"/>
<path d="M587.68 459.96L480.68 436.28L480.85 502.99L588.29 529.71L587.68 459.96Z" fill="#f4f4f9" fill-rule="nonzero" opacity="1" stroke="none"/>
<path d="M0 0L1280 0L1280 0L1280 1024L1280 1024L0 1024L0 1024L0 0L0 0Z" fill="url(#LinearGradient_2)" fill-rule="nonzero" opacity="0" stroke="none"/>
<path d="M950.38 115.6L428.17 0L428.99 325.59L950.99 441.59L950.38 115.6ZM448.79 188.2L448.04 23.84L927.19 129.91L927.75 294.64L448.79 188.2Z" fill="url(#LinearGradient_3)" fill-rule="nonzero" opacity="1" stroke="none"/>
<g opacity="1">
<path d="M365.7 542.43L511.88 580.19L613.77 548.23L467.4 510.51L365.7 542.43Z" fill="url(#LinearGradient_4)" fill-rule="nonzero" opacity="1" stroke="none"/>
<path d="M454.68 517.33L470.1 521.32L480.86 517.94L465.41 513.96L454.68 517.33Z" fill="#f4f4f9" fill-rule="nonzero" opacity="1" stroke="none"/>
<path d="M473.04 522.23L488.47 526.21L499.22 522.84L483.77 518.86L473.04 522.23Z" fill="#f4f4f9" fill-rule="nonzero" opacity="1" stroke="none"/>
<path d="M491.54 527.16L506.97 531.14L517.72 527.77L502.27 523.79L491.54 527.16Z" fill="#f4f4f9" fill-rule="nonzero" opacity="1" stroke="none"/>
<path d="M510.04 532.09L525.47 536.08L536.22 532.71L520.77 528.72L510.04 532.09Z" fill="#f4f4f9" fill-rule="nonzero" opacity="1" stroke="none"/>
<path d="M528.46 537.09L543.88 541.08L554.64 537.7L539.19 533.72L528.46 537.09Z" fill="#f4f4f9" fill-rule="nonzero" opacity="1" stroke="none"/>
<path d="M547.58 542.02L563 546.01L573.75 542.64L558.31 538.66L547.58 542.02Z" fill="#f4f4f9" fill-rule="nonzero" opacity="1" stroke="none"/>
<path d="M566.69 546.96L582.12 550.94L592.87 547.57L577.42 543.59L566.69 546.96Z" fill="#f4f4f9" fill-rule="nonzero" opacity="1" stroke="none"/>
<path d="M431.59 519.52L447.02 523.51L457.77 520.13L442.32 516.15L431.59 519.52Z" fill="#f4f4f9" fill-rule="nonzero" opacity="1" stroke="none"/>
<path d="M449.96 524.42L465.38 528.4L476.13 525.03L460.69 521.05L449.96 524.42Z" fill="#f4f4f9" fill-rule="nonzero" opacity="1" stroke="none"/>
<path d="M468.46 529.35L483.88 533.33L494.63 529.96L479.19 525.98L468.46 529.35Z" fill="#f4f4f9" fill-rule="nonzero" opacity="1" stroke="none"/>
<path d="M486.96 534.28L502.38 538.27L513.13 534.9L497.69 530.91L486.96 534.28Z" fill="#f4f4f9" fill-rule="nonzero" opacity="1" stroke="none"/>
<path d="M505.37 539.28L520.8 543.26L531.55 539.89L516.1 535.91L505.37 539.28Z" fill="#f4f4f9" fill-rule="nonzero" opacity="1" stroke="none"/>
<path d="M524.49 544.21L539.91 548.2L550.67 544.83L535.22 540.84L524.49 544.21Z" fill="#f4f4f9" fill-rule="nonzero" opacity="1" stroke="none"/>
<path d="M543.61 549.15L559.03 553.13L569.78 549.76L554.34 545.78L543.61 549.15Z" fill="#f4f4f9" fill-rule="nonzero" opacity="1" stroke="none"/>
<path d="M426.61 526.44L442.04 530.43L452.79 527.05L437.34 523.07L426.61 526.44Z" fill="#f4f4f9" fill-rule="nonzero" opacity="1" stroke="none"/>
<path d="M444.98 531.34L460.4 535.32L471.15 531.95L455.71 527.97L444.98 531.34Z" fill="#f4f4f9" fill-rule="nonzero" opacity="1" stroke="none"/>
<path d="M463.48 536.27L478.9 540.25L489.65 536.88L474.21 532.9L463.48 536.27Z" fill="#f4f4f9" fill-rule="nonzero" opacity="1" stroke="none"/>
<path d="M481.98 541.2L497.4 545.19L508.15 541.82L492.71 537.83L481.98 541.2Z" fill="#f4f4f9" fill-rule="nonzero" opacity="1" stroke="none"/>
<path d="M500.39 546.2L515.82 550.18L526.57 546.81L511.12 542.83L500.39 546.2Z" fill="#f4f4f9" fill-rule="nonzero" opacity="1" stroke="none"/>
<path d="M519.51 551.13L534.93 555.12L545.69 551.75L530.24 547.76L519.51 551.13Z" fill="#f4f4f9" fill-rule="nonzero" opacity="1" stroke="none"/>
<path d="M538.63 556.07L554.05 560.05L564.8 556.68L549.36 552.7L538.63 556.07Z" fill="#f4f4f9" fill-rule="nonzero" opacity="1" stroke="none"/>
<path d="M402.56 528.29L417.99 532.28L428.74 528.9L413.29 524.92L402.56 528.29Z" fill="#f4f4f9" fill-rule="nonzero" opacity="1" stroke="none"/>
<path d="M420.93 533.19L436.35 537.17L447.1 533.8L431.66 529.82L420.93 533.19Z" fill="#f4f4f9" fill-rule="nonzero" opacity="1" stroke="none"/>
<path d="M439.43 538.12L454.85 542.1L465.6 538.73L450.16 534.75L439.43 538.12Z" fill="#f4f4f9" fill-rule="nonzero" opacity="1" stroke="none"/>
<path d="M457.93 543.05L473.35 547.04L484.1 543.67L468.66 539.68L457.93 543.05Z" fill="#f4f4f9" fill-rule="nonzero" opacity="1" stroke="none"/>
<path d="M476.34 548.05L491.77 552.03L502.52 548.66L487.07 544.68L476.34 548.05Z" fill="#f4f4f9" fill-rule="nonzero" opacity="1" stroke="none"/>
<path d="M495.46 552.98L510.88 556.97L521.64 553.6L506.19 549.61L495.46 552.98Z" fill="#f4f4f9" fill-rule="nonzero" opacity="1" stroke="none"/>
<path d="M514.58 557.92L530 561.9L540.75 558.53L525.31 554.55L514.58 557.92Z" fill="#f4f4f9" fill-rule="nonzero" opacity="1" stroke="none"/>
<path d="M561.89 554.14L577.31 558.12L588.06 554.75L572.62 550.77L561.89 554.14Z" fill="#f4f4f9" fill-rule="nonzero" opacity="1" stroke="none"/>
<path d="M532.86 562.91L548.28 566.89L559.03 563.52L543.59 559.54L532.86 562.91Z" fill="#f4f4f9" fill-rule="nonzero" opacity="1" stroke="none"/>
<path d="M418.75 553.81L465.05 565.76L497.32 555.64L450.96 543.69L418.75 553.81Z" fill="#f4f4f9" fill-rule="nonzero" opacity="1" stroke="none"/>
</g>
<path d="M913.42 500.38C913.42 500.38 887.2 532.33 869.96 538.29C852.71 544.24 829.62 488.52 829.62 488.52C829.62 488.52 842.77 428.49 826.73 449.23C797.26 487.31 799.86 400.25 771.96 447.75C765.48 458.79 775.88 475.52 799.72 492.54C806.36 497.29 829.8 577.98 857.23 577.27C900 576.17 929.87 532.18 929.87 532.18L913.42 500.38Z" fill="#edd3b7" fill-rule="nonzero" opacity="1" stroke="none"/>
<g opacity="1">
<path d="M771.11 291.65C771.11 284.586 776.836 278.86 783.9 278.86C790.964 278.86 796.69 284.586 796.69 291.65C796.69 298.714 790.964 304.44 783.9 304.44C776.836 304.44 771.11 298.714 771.11 291.65Z" fill="#f4f4f9" fill-rule="nonzero" opacity="1" stroke="none"/>
<path d="M742.2 311.63C742.2 304.566 747.926 298.84 754.99 298.84C762.054 298.84 767.78 304.566 767.78 311.63C767.78 318.694 762.054 324.42 754.99 324.42C747.926 324.42 742.2 318.694 742.2 311.63Z" fill="#f4f4f9" fill-rule="nonzero" opacity="1" stroke="none"/>
<path d="M782.47 324.87C782.47 317.806 788.196 312.08 795.26 312.08C802.324 312.08 808.05 317.806 808.05 324.87C808.05 331.934 802.324 337.66 795.26 337.66C788.196 337.66 782.47 331.934 782.47 324.87Z" fill="#f4f4f9" fill-rule="nonzero" opacity="1" stroke="none"/>
<path d="M786.503 289.605L788.953 293.391L788.953 293.391L758.631 313.019L758.631 313.019L756.18 309.233L756.18 309.233L786.503 289.605L786.503 289.605Z" fill="#f4f4f9" fill-rule="nonzero" opacity="1" stroke="none"/>
<path d="M777.064 290.999L780.85 288.548L780.85 288.548L800.477 318.871L800.477 318.871L796.691 321.321L796.691 321.321L777.064 290.999L777.064 290.999Z" fill="#f4f4f9" fill-rule="nonzero" opacity="1" stroke="none"/>
<path d="M755.17 342.68C755.17 335.616 760.896 329.89 767.96 329.89C775.024 329.89 780.75 335.616 780.75 342.68C780.75 349.744 775.024 355.47 767.96 355.47C760.896 355.47 755.17 349.744 755.17 342.68Z" fill="#f4f4f9" fill-rule="nonzero" opacity="1" stroke="none"/>
<path d="M795.43 355.91C795.43 348.846 801.156 343.12 808.22 343.12C815.284 343.12 821.01 348.846 821.01 355.91C821.01 362.974 815.284 368.7 808.22 368.7C801.156 368.7 795.43 362.974 795.43 355.91Z" fill="#f4f4f9" fill-rule="nonzero" opacity="1" stroke="none"/>
<path d="M799.469 320.659L801.919 324.445L801.919 324.445L771.597 344.072L771.597 344.072L769.146 340.286L769.146 340.286L799.469 320.659L799.469 320.659Z" fill="#f4f4f9" fill-rule="nonzero" opacity="1" stroke="none"/>
<path d="M790.033 322.047L793.819 319.596L793.819 319.596L813.447 349.919L813.447 349.919L809.661 352.37L809.661 352.37L790.033 322.047L790.033 322.047Z" fill="#f4f4f9" fill-rule="nonzero" opacity="1" stroke="none"/>
<path d="M726.13 361.34C726.13 354.276 731.856 348.55 738.92 348.55C745.984 348.55 751.71 354.276 751.71 361.34C751.71 368.404 745.984 374.13 738.92 374.13C731.856 374.13 726.13 368.404 726.13 361.34Z" fill="#f4f4f9" fill-rule="nonzero" opacity="1" stroke="none"/>
<path d="M766.39 374.58C766.39 367.516 772.116 361.79 779.18 361.79C786.244 361.79 791.97 367.516 791.97 374.58C791.97 381.644 786.244 387.37 779.18 387.37C772.116 387.37 766.39 381.644 766.39 374.58Z" fill="#f4f4f9" fill-rule="nonzero" opacity="1" stroke="none"/>
<path d="M770.432 339.315L772.882 343.101L772.882 343.101L742.56 362.728L742.56 362.728L740.109 358.942L740.109 358.942L770.432 339.315L770.432 339.315Z" fill="#f4f4f9" fill-rule="nonzero" opacity="1" stroke="none"/>
<path d="M760.992 340.71L764.778 338.259L764.778 338.259L784.405 368.582L784.405 368.582L780.619 371.033L780.619 371.033L760.992 340.71L760.992 340.71Z" fill="#f4f4f9" fill-rule="nonzero" opacity="1" stroke="none"/>
<path d="M761.84 293.67C762.17 292.12 762.68 291.01 763.37 290.35C764.06 289.69 764.92 289.47 765.97 289.69C767.02 289.92 767.72 290.47 768.08 291.35C768.44 292.23 768.45 293.45 768.11 295.01C767.78 296.56 767.27 297.67 766.58 298.33C765.89 298.99 765.02 299.21 763.97 298.98C762.92 298.76 762.22 298.2 761.87 297.31C761.52 296.42 761.51 295.22 761.84 293.67ZM763.52 296.53C763.61 297.07 763.87 297.39 764.31 297.48C764.75 297.57 765.12 297.39 765.42 296.93C765.73 296.47 766 295.69 766.23 294.6C766.32 294.18 766.38 293.81 766.42 293.47L763.49 296.33C763.5 296.41 763.51 296.47 763.52 296.53ZM765.65 291.19C765.22 291.1 764.85 291.28 764.54 291.74C764.23 292.2 763.96 292.98 763.73 294.08C763.66 294.42 763.6 294.73 763.56 295.02L766.45 292.19C766.45 292.18 766.45 292.16 766.45 292.15C766.35 291.6 766.09 291.28 765.65 291.19Z" fill="#ffffff" fill-rule="nonzero" opacity="1" stroke="none"/>
<path d="M773.49 324.22C773.82 322.67 774.33 321.56 775.02 320.9C775.71 320.24 776.57 320.02 777.62 320.24C778.67 320.47 779.37 321.02 779.73 321.9C780.09 322.78 780.1 324 779.76 325.56C779.43 327.11 778.92 328.22 778.23 328.88C777.54 329.54 776.68 329.76 775.62 329.53C774.57 329.31 773.87 328.75 773.52 327.86C773.17 326.97 773.15 325.76 773.49 324.22ZM775.16 327.08C775.25 327.62 775.51 327.94 775.95 328.03C776.39 328.12 776.76 327.94 777.07 327.48C777.37 327.02 777.65 326.25 777.88 325.15C777.97 324.73 778.03 324.36 778.07 324.02L775.14 326.88C775.14 326.96 775.15 327.02 775.16 327.08ZM777.29 321.73C776.86 321.64 776.49 321.82 776.18 322.28C775.87 322.74 775.6 323.52 775.37 324.62C775.3 324.96 775.24 325.27 775.2 325.56L778.09 322.73C778.09 322.72 778.09 322.7 778.09 322.69C777.99 322.15 777.73 321.83 777.29 321.73Z" fill="#ffffff" fill-rule="nonzero" opacity="1" stroke="none"/>
<path d="M744.88 343.44C745.21 341.89 745.72 340.78 746.41 340.12C747.1 339.46 747.96 339.24 749.01 339.46C750.06 339.68 750.76 340.24 751.12 341.12C751.48 342 751.49 343.22 751.15 344.78C750.82 346.33 750.31 347.44 749.62 348.1C748.93 348.76 748.06 348.98 747.01 348.75C745.96 348.53 745.26 347.97 744.91 347.08C744.56 346.21 744.55 344.99 744.88 343.44ZM746.55 346.3C746.64 346.84 746.9 347.16 747.34 347.25C747.78 347.34 748.15 347.16 748.45 346.7C748.76 346.24 749.03 345.46 749.26 344.37C749.35 343.95 749.41 343.58 749.45 343.24L746.52 346.1C746.53 346.19 746.54 346.25 746.55 346.3ZM748.69 340.96C748.26 340.87 747.89 341.05 747.58 341.51C747.27 341.97 747 342.75 746.77 343.85C746.7 344.19 746.64 344.5 746.6 344.79L749.49 341.96C749.49 341.95 749.49 341.93 749.49 341.92C749.39 341.37 749.12 341.05 748.69 340.96Z" fill="#ffffff" fill-rule="nonzero" opacity="1" stroke="none"/>
<path d="M809.98 335.93L812.08 336.38L813.33 330.56L811.28 330.6L811.62 329L813.68 328.98L815.49 329.37L813.91 336.77L816.01 337.22L815.68 338.78L809.66 337.49L809.98 335.93Z" fill="#ffffff" fill-rule="nonzero" opacity="1" stroke="none"/>
<path d="M781.05 356.68L783.15 357.13L784.4 351.31L782.35 351.35L782.69 349.75L784.75 349.73L786.56 350.12L784.98 357.52L787.08 357.97L786.75 359.53L780.73 358.24L781.05 356.68Z" fill="#ffffff" fill-rule="nonzero" opacity="1" stroke="none"/>
<path d="M796.6 306.45L798.7 306.9L799.95 301.08L797.9 301.12L798.24 299.52L800.3 299.5L802.11 299.89L800.53 307.29L802.63 307.74L802.3 309.3L796.28 308.01L796.6 306.45Z" fill="#ffffff" fill-rule="nonzero" opacity="1" stroke="none"/>
</g>
<g opacity="1">
<path d="M601.194 248.945L646.411 259.397L646.411 259.397L640.605 284.514L640.605 284.514L595.388 274.063L595.388 274.063L601.194 248.945L601.194 248.945Z" fill="#f4f4f9" fill-rule="nonzero" opacity="0.75" stroke="none"/>
<path d="M594.614 277.415L639.831 287.867L639.831 287.867L634.026 312.984L634.026 312.984L588.809 302.533L588.809 302.533L594.614 277.415L594.614 277.415Z" fill="#f4f4f9" fill-rule="nonzero" opacity="0.75" stroke="none"/>
<path d="M588.035 305.886L633.252 316.337L633.252 316.337L627.446 341.454L627.446 341.454L582.229 331.003L582.229 331.003L588.035 305.886L588.035 305.886Z" fill="#f4f4f9" fill-rule="nonzero" opacity="1" stroke="none"/>
<g opacity="1">
<path d="M579.96 260.94C579.97 261.04 579.98 261.13 579.99 261.21C580.11 261.99 580.48 262.45 581.1 262.6C581.72 262.74 582.26 262.49 582.71 261.84C583.16 261.19 583.57 260.08 583.93 258.51C584.07 257.91 584.17 257.38 584.24 256.9L579.96 260.94Z" fill="#f4f4f9" fill-rule="nonzero" opacity="1" stroke="none"/>
<path d="M584.3 254.97C584.18 254.19 583.81 253.73 583.18 253.58C582.56 253.44 582.03 253.69 581.58 254.34C581.13 254.99 580.72 256.1 580.36 257.68C580.25 258.17 580.16 258.61 580.09 259.02L584.31 255.03C584.3 255.01 584.3 254.99 584.3 254.97Z" fill="#f4f4f9" fill-rule="nonzero" opacity="1" stroke="none"/>
<path d="M572.72 242.38L566.91 267.5L592.87 273.5L598.68 248.38L572.72 242.38ZM584.36 263.86C583.36 264.79 582.11 265.08 580.6 264.74C579.1 264.39 578.11 263.58 577.62 262.3C577.13 261.02 577.14 259.27 577.65 257.06C578.16 254.84 578.92 253.26 579.92 252.33C580.92 251.39 582.17 251.1 583.67 251.45C585.17 251.8 586.17 252.61 586.66 253.89C587.15 255.17 587.14 256.92 586.62 259.15C586.12 261.35 585.36 262.93 584.36 263.86Z" fill="#f4f4f9" fill-rule="nonzero" opacity="1" stroke="none"/>
</g>
<path d="M566.14 270.85L560.33 295.97L586.29 301.97L592.1 276.85L566.14 270.85ZM579.22 293.68L570.61 291.69L571.13 289.46L574.13 290.15L576.05 281.83L573.11 281.84L573.64 279.56L576.6 279.57L579.19 280.17L576.74 290.76L579.74 291.45L579.22 293.68Z" fill="#f4f4f9" fill-rule="nonzero" opacity="1" stroke="none"/>
<path d="M559.56 299.32L553.75 324.44L579.71 330.44L585.52 305.32L559.56 299.32ZM571.83 321.89L563.21 319.9L563.71 317.74L565.5 316.62C567.63 315.28 568.92 314.46 569.39 314.14C569.96 313.75 570.39 313.39 570.67 313.06C570.96 312.73 571.15 312.37 571.23 312C571.36 311.43 571.28 310.94 570.99 310.55C570.7 310.15 570.21 309.88 569.54 309.72C569.06 309.61 568.5 309.57 567.86 309.62C567.22 309.66 566.54 309.78 565.81 309.97L566.36 307.61C567.06 307.54 567.73 307.51 568.38 307.54C569.03 307.57 569.64 307.65 570.21 307.78C571.65 308.11 572.7 308.69 573.38 309.51C574.05 310.33 574.27 311.29 574.01 312.38C573.89 312.88 573.7 313.34 573.41 313.73C573.13 314.13 572.71 314.55 572.15 314.98C571.74 315.29 570.65 315.97 568.9 317C567.95 317.56 567.19 318 566.63 318.34L572.35 319.66L571.83 321.89Z" fill="#f4f4f9" fill-rule="nonzero" opacity="1" stroke="none"/>
<path d="M484.23 264.51C484.23 255.491 491.541 248.18 500.56 248.18C509.579 248.18 516.89 255.491 516.89 264.51C516.89 273.529 509.579 280.84 500.56 280.84C491.541 280.84 484.23 273.529 484.23 264.51Z" fill="#f4f4f9" fill-rule="nonzero" opacity="1" stroke="none"/>
<g opacity="1">
<path d="M515.54 268.93L556.57 278.42L549.11 310.18L552.77 310.98" fill="none" opacity="1" stroke="#f4f4f9" stroke-linecap="butt" stroke-linejoin="miter" stroke-width="3"/>
<path d="M556.66 311.84C554.68 312.12 552.15 312.78 550.48 313.7L552.26 310.88L551.82 307.57C552.96 309.1 554.98 310.76 556.66 311.84Z" fill="#f4f4f9" fill-rule="nonzero" opacity="1" stroke="none"/>
</g>
<path d="M545.64 231.71C539.86 230.37 530.62 248.97 525.01 273.25C519.4 297.53 519.53 318.29 525.31 319.63C531.09 320.97 540.33 302.37 545.94 278.09C551.55 253.81 551.42 233.05 545.64 231.71ZM543.83 260.68L542.99 262.52L539.86 261.8L536.5 269.12L533.84 268.5L537.2 261.18L534.72 260.61L535.56 258.77L538.04 259.34L538.34 258.7C538.87 257.55 539.47 256.83 540.12 256.54C540.78 256.25 541.83 256.27 543.28 256.6L545.46 257.1L544.62 258.94L542.53 258.46C542.14 258.37 541.83 258.38 541.62 258.5C541.41 258.62 541.2 258.89 541 259.33L540.7 259.95L543.83 260.68Z" fill="#f4f4f9" fill-rule="nonzero" opacity="0.75" stroke="none"/>
</g>
<g opacity="1">
<clipPath id="ClipPath">
<path d="M26.17 202.94L70.76 187.4L70.76 205.83L3.55 229.25L3.55 211.38L14.89 195.37C28.36 176.36 36.54 164.69 39.42 160.38C42.96 155.08 45.52 150.59 47.08 146.9C48.64 143.21 49.42 139.83 49.42 136.76C49.42 132.03 47.99 128.88 45.13 127.3C42.27 125.72 38.22 125.84 32.97 127.67C29.24 128.97 25.04 131.18 20.39 134.29C15.73 137.4 10.88 141.26 5.82 145.85L5.82 126.35C10.88 122.74 15.83 119.61 20.67 116.96C25.51 114.3 30.16 112.2 34.6 110.65C45.8 106.75 54.6 106.29 61.01 109.28C67.41 112.27 70.62 118.28 70.62 127.31C70.62 131.47 69.92 135.61 68.53 139.74C67.13 143.87 64.74 148.74 61.33 154.37C58.82 158.46 51.95 168.09 40.7 183.25C34.6 191.49 29.76 198.05 26.17 202.94ZM91.53 145.78C91.53 127.44 94.44 112.69 100.25 101.52C106.06 90.35 114.81 82.73 126.48 78.66C138.2 74.58 146.97 76.08 152.78 83.18C158.59 90.28 161.5 103.02 161.5 121.4C161.5 139.74 158.59 154.48 152.78 165.63C146.97 176.78 138.2 184.39 126.48 188.48C114.81 192.55 106.06 191.02 100.25 183.9C94.44 176.78 91.53 164.07 91.53 145.78ZM126.48 96.38C121.66 98.06 118.14 102.24 115.92 108.92C113.7 115.6 112.59 125.44 112.59 138.44C112.59 142.46 112.68 146.09 112.87 149.33L137.26 101.91C137.21 101.78 137.17 101.66 137.12 101.53C134.89 96.4 131.35 94.68 126.48 96.38ZM115.92 165.57C118.14 170.71 121.66 172.43 126.48 170.75C131.35 169.05 134.89 164.87 137.11 158.18C139.33 151.5 140.44 141.68 140.44 128.73C140.44 123.81 140.27 119.48 139.94 115.72L115.2 163.76C115.45 164.43 115.68 165.04 115.92 165.57ZM200.99 142.02L245.58 126.48L245.58 144.91L178.37 168.33L178.37 150.46L189.71 134.46C203.18 115.45 211.36 103.78 214.24 99.47C217.78 94.17 220.34 89.68 221.9 85.99C223.46 82.3 224.24 78.92 224.24 75.85C224.24 71.12 222.81 67.97 219.95 66.39C217.09 64.81 213.04 64.93 207.79 66.76C204.06 68.06 199.86 70.27 195.21 73.38C190.56 76.49 185.7 80.35 180.64 84.94L180.64 65.44C185.7 61.83 190.65 58.7 195.49 56.05C200.33 53.39 204.98 51.29 209.42 49.74C220.62 45.84 229.42 45.38 235.83 48.37C242.23 51.36 245.44 57.37 245.44 66.4C245.44 70.56 244.74 74.7 243.35 78.83C241.95 82.96 239.56 87.83 236.15 93.46C233.64 97.55 226.77 107.18 215.52 122.34C209.43 130.57 204.58 137.13 200.99 142.02ZM296.56 79.8L285.36 83.7L285.36 65.27L296.56 61.37C301.76 59.56 305.79 57.13 308.65 54.07C311.51 51.02 312.94 47.62 312.94 43.89C312.94 39.97 311.51 37.41 308.65 36.2C305.79 35 301.76 35.3 296.56 37.12C292.59 38.5 288.34 40.48 283.8 43.06C279.26 45.63 274.56 48.72 269.69 52.3L269.69 33.3C274.56 30.14 279.36 27.34 284.08 24.92C288.8 22.5 293.34 20.52 297.69 19.01C308.84 15.12 317.54 14.53 323.78 17.22C330.02 19.92 333.14 25.54 333.14 34.09C333.14 40.38 331.34 46.14 327.75 51.39C324.16 56.64 319.03 61.03 312.37 64.58C319.93 63.27 325.7 64.27 329.67 67.59C333.64 70.91 335.63 76.4 335.63 84.05C335.63 94.31 332.34 103.27 325.78 110.95C319.21 118.63 309.66 124.65 297.14 129.01C291.8 130.87 286.54 132.25 281.37 133.16C276.19 134.07 271.24 134.49 266.52 134.44L266.52 115.02C270.96 115.69 275.76 115.71 280.91 115.07C286.06 114.43 291.47 113.13 297.15 111.15C302.82 109.17 307.31 106.3 310.62 102.52C313.93 98.74 315.58 94.63 315.58 90.19C315.58 84.76 313.93 81.14 310.62 79.34C307.29 77.54 302.61 77.69 296.56 79.8ZM1.17 271.78L1.17 263.05L31.02 252.65L31.02 261.38L21.05 264.86L21.05 297.53L31.02 294.05L31.02 302.78L1.17 313.18L1.17 304.45L11.14 300.97L11.14 268.3L1.17 271.78ZM73.11 286.68C71.54 288.03 69.9 289.21 68.17 290.21C66.45 291.21 64.63 292.05 62.73 292.71C55.97 295.07 50.81 294.64 47.25 291.42C43.69 288.21 41.91 282.39 41.91 273.97C41.91 265.53 43.69 258.46 47.25 252.77C50.81 247.08 55.97 243.05 62.73 240.69C64.63 240.03 66.46 239.59 68.2 239.39C69.95 239.18 71.58 239.22 73.1 239.49L73.1 250.5C71.4 249.53 69.75 248.96 68.15 248.79C66.55 248.62 64.9 248.83 63.2 249.42C59.57 250.68 56.84 253.08 54.99 256.6C53.14 260.12 52.22 264.71 52.22 270.38C52.22 276.02 53.14 279.96 54.99 282.19C56.84 284.42 59.57 284.91 63.2 283.64C64.9 283.05 66.55 282.11 68.15 280.82C69.75 279.53 71.4 277.81 73.1 275.65L73.1 286.68L73.11 286.68ZM83.65 234.31L97.25 229.57C104.17 227.16 109.14 226.66 112.18 228.06C115.21 229.47 116.73 232.93 116.73 238.46C116.73 243.99 115.21 248.51 112.18 252.03C109.15 255.55 104.17 258.52 97.25 260.93L93.56 262.22L93.56 280.99L83.65 284.44C83.65 284.44 83.65 234.31 83.65 234.31ZM93.56 239.19L93.56 253.9L97.62 252.48C100.87 251.35 103.14 250.01 104.45 248.45C105.76 246.9 106.41 244.77 106.41 242.06C106.41 239.35 105.76 237.68 104.45 237.04C103.14 236.4 100.86 236.64 97.62 237.78L93.56 239.19ZM155.92 257.82C154.35 259.17 152.71 260.35 150.98 261.35C149.26 262.35 147.44 263.19 145.54 263.85C138.78 266.21 133.62 265.78 130.06 262.56C126.5 259.34 124.72 253.53 124.72 245.11C124.72 236.67 126.5 229.6 130.06 223.91C133.62 218.22 138.78 214.19 145.54 211.83C147.44 211.17 149.27 210.73 151.01 210.53C152.76 210.33 154.39 210.36 155.91 210.63L155.91 221.64C154.21 220.67 152.56 220.09 150.96 219.93C149.36 219.76 147.71 219.97 146.01 220.56C142.38 221.82 139.65 224.22 137.8 227.74C135.95 231.26 135.03 235.85 135.03 241.52C135.03 247.16 135.95 251.1 137.8 253.33C139.65 255.56 142.38 256.05 146.01 254.78C147.71 254.19 149.36 253.25 150.96 251.96C152.56 250.67 154.21 248.95 155.91 246.79L155.91 257.82L155.92 257.82ZM189.47 197.44L201.59 193.22L215.12 238.64L205.21 242.09L202.12 230.77L188.86 235.39L185.84 248.84L175.93 252.29L189.47 197.44ZM195.51 204.4L190.84 226.55L200.21 223.29L195.51 204.4ZM233.36 210.28C228.37 210.12 224.99 209.3 223.22 207.82C221.45 206.34 220.57 203.84 220.57 200.3C220.57 195.76 222.02 191.68 224.94 188.07C227.85 184.46 231.85 181.77 236.93 180C239.24 179.2 241.54 178.66 243.85 178.38C246.16 178.1 248.44 178.09 250.7 178.33L250.7 188C248.57 187.24 246.41 186.85 244.22 186.83C242.03 186.81 239.85 187.18 237.71 187.92C235.31 188.75 233.48 189.88 232.2 191.28C230.92 192.69 230.29 194.29 230.29 196.08C230.29 197.47 230.75 198.45 231.68 199.04C232.61 199.62 234.55 199.95 237.51 200.02L241.77 200.15C245.8 200.22 248.77 201.15 250.67 202.93C252.57 204.71 253.52 207.45 253.52 211.17C253.52 216.23 252.02 220.53 249.04 224.07C246.05 227.61 241.53 230.43 235.49 232.54C233 233.41 230.51 233.98 228.02 234.25C225.52 234.53 223.11 234.49 220.78 234.14L220.78 223.9C223.42 224.86 225.98 225.37 228.45 225.42C230.92 225.48 233.37 225.08 235.79 224.24C238.23 223.39 240.12 222.18 241.47 220.6C242.81 219.02 243.49 217.24 243.49 215.25C243.49 213.75 243.04 212.59 242.15 211.77C241.25 210.95 239.96 210.51 238.25 210.46L233.36 210.28ZM263.41 180.4L263.41 171.67L293.26 161.27L293.26 170L283.29 173.48L283.29 206.15L293.26 202.67L293.26 211.4L263.41 221.8L263.41 213.07L273.38 209.59L273.38 176.92L263.41 180.4ZM313.69 154.15L325.81 149.93L339.34 195.35L329.43 198.8L326.34 187.48L313.08 192.1L310.06 205.55L300.15 209L313.69 154.15ZM319.73 161.11L315.06 183.26L324.43 179.99L319.73 161.11ZM5.68434e-14 320.77L9.91 317.32L9.91 336.43L22.3 332.11L22.3 313L32.21 309.55L32.21 359.69L22.3 363.14L22.3 340.84L9.91 345.16L9.91 367.46L5.68434e-14 370.91L5.68434e-14 320.77ZM39.89 331.99C39.89 323.42 41.37 316.42 44.34 311C47.31 305.58 51.69 301.86 57.49 299.84C63.31 297.81 67.7 298.48 70.67 301.83C73.64 305.19 75.12 311.15 75.12 319.72C75.12 328.27 73.64 335.26 70.67 340.68C67.7 346.1 63.31 349.83 57.49 351.85C51.69 353.87 47.31 353.2 44.34 349.85C41.38 346.5 39.89 340.54 39.89 331.99ZM57.49 308.73C54.96 309.61 53.11 311.61 51.95 314.71C50.79 317.81 50.2 322.38 50.2 328.4C50.2 334.4 50.78 338.55 51.95 340.84C53.11 343.13 54.96 343.84 57.49 342.96C60.04 342.07 61.9 340.08 63.06 336.97C64.22 333.87 64.81 329.31 64.81 323.31C64.81 317.29 64.23 313.13 63.06 310.84C61.9 308.54 60.04 307.84 57.49 308.73ZM82.21 292.13L92.86 288.42L106.83 319.99L106.83 283.55L115.56 280.51L115.56 330.65L104.98 334.34L90.94 302.79L90.94 339.23L82.21 342.27L82.21 292.13ZM148.9 309.96L148.9 300.39L142.12 302.75L142.12 294.42L157.57 289.04L157.57 312.01C155.67 314.31 153.57 316.28 151.27 317.92C148.97 319.56 146.52 320.83 143.9 321.75C137.41 324.01 132.39 323.5 128.85 320.23C125.31 316.95 123.54 311.16 123.54 302.85C123.54 294.41 125.32 287.34 128.9 281.64C132.47 275.94 137.63 271.92 144.36 269.57C146.37 268.87 148.36 268.46 150.3 268.36C152.25 268.25 154.07 268.44 155.77 268.92L155.77 279.9C154.38 278.59 152.79 277.8 150.98 277.52C149.18 277.24 147.2 277.48 145.05 278.23C141.29 279.54 138.48 281.94 136.62 285.42C134.76 288.9 133.83 293.52 133.83 299.27C133.83 304.84 134.73 308.77 136.52 311.06C138.31 313.35 140.92 313.89 144.34 312.7C145.37 312.34 146.27 311.93 147.03 311.48C147.81 311 148.43 310.5 148.9 309.96ZM178.75 258.48L188.66 255.03L188.66 274.84L204.17 249.62L215.39 245.71L199.57 270.97L215.96 295.65L204.95 299.49L193.06 281.06L188.66 288.17L188.66 305.16L178.75 308.61C178.75 308.61 178.75 258.48 178.75 258.48ZM219.32 269.47C219.32 260.9 220.8 253.9 223.77 248.48C226.74 243.06 231.12 239.34 236.92 237.32C242.74 235.29 247.13 235.96 250.1 239.31C253.07 242.66 254.55 248.63 254.55 257.2C254.55 265.75 253.07 272.74 250.1 278.16C247.13 283.58 242.74 287.31 236.92 289.33C231.12 291.35 226.74 290.68 223.77 287.33C220.8 283.97 219.32 278.02 219.32 269.47ZM236.92 246.21C234.39 247.09 232.54 249.09 231.38 252.19C230.21 255.29 229.63 259.86 229.63 265.88C229.63 271.88 230.21 276.03 231.38 278.32C232.54 280.61 234.39 281.32 236.92 280.44C239.47 279.55 241.33 277.56 242.49 274.45C243.65 271.35 244.24 266.79 244.24 260.79C244.24 254.77 243.66 250.61 242.49 248.32C241.33 246.02 239.47 245.32 236.92 246.21ZM261.63 229.6L272.28 225.89L286.25 257.46L286.25 221.02L294.98 217.98L294.98 268.12L284.4 271.81L270.36 240.26L270.36 276.7L261.63 279.74L261.63 229.6ZM328.33 247.43L328.33 237.86L321.55 240.22L321.55 231.89L337 226.51L337 249.48C335.1 251.78 333 253.75 330.7 255.38C328.4 257.02 325.95 258.29 323.33 259.21C316.84 261.47 311.82 260.97 308.28 257.69C304.74 254.41 302.97 248.62 302.97 240.31C302.97 231.87 304.75 224.8 308.33 219.1C311.9 213.4 317.06 209.38 323.79 207.03C325.8 206.33 327.79 205.92 329.73 205.82C331.68 205.71 333.5 205.9 335.2 206.38L335.2 217.36C333.81 216.05 332.22 215.26 330.41 214.98C328.61 214.7 326.63 214.94 324.48 215.69C320.72 217 317.91 219.4 316.05 222.88C314.19 226.36 313.26 230.98 313.26 236.73C313.26 242.3 314.16 246.24 315.95 248.52C317.74 250.81 320.35 251.35 323.77 250.16C324.8 249.8 325.7 249.39 326.46 248.94C327.24 248.48 327.86 247.98 328.33 247.43ZM23.63 417.3C24.66 417.15 25.55 417.33 26.31 417.82C27.07 418.31 27.99 419.47 29.09 421.28L38.54 436.77L27.21 440.72L20.91 429.73C20.72 429.42 20.48 428.99 20.18 428.45C18.34 425.15 16.17 423.94 13.67 424.81L10.38 425.96L10.38 446.6L0.0599895 450.2L0.0599895 397.95L14.96 392.76C21.68 390.42 26.5 389.93 29.42 391.29C32.35 392.65 33.81 396.01 33.81 401.37C33.81 404.96 32.94 408.12 31.19 410.85C29.43 413.58 26.91 415.73 23.63 417.3ZM10.37 403.03L10.37 417.27L15.23 415.58C18.05 414.6 20.07 413.34 21.3 411.8C22.52 410.27 23.14 408.23 23.14 405.69C23.14 403.15 22.53 401.54 21.32 400.87C20.11 400.2 18.08 400.36 15.23 401.35L10.37 403.03ZM76.94 423.38L44.41 434.72L44.41 382.49L76.94 371.15L76.94 380.24L54.73 387.98L54.73 399.24L74.84 392.23L74.84 401.33L54.73 408.34L54.73 422.02L76.94 414.28L76.94 423.38ZM112.16 401.66L112.16 391.69L105.09 394.15L105.09 385.48L121.18 379.87L121.18 403.8C119.2 406.19 117.01 408.24 114.62 409.95C112.23 411.66 109.67 412.99 106.94 413.94C100.18 416.3 94.95 415.77 91.27 412.35C87.59 408.93 85.74 402.9 85.74 394.25C85.74 385.46 87.6 378.09 91.32 372.16C95.04 366.22 100.41 362.03 107.43 359.58C109.53 358.85 111.59 358.43 113.62 358.32C115.65 358.21 117.55 358.4 119.32 358.9L119.32 370.34C117.87 368.98 116.21 368.15 114.34 367.86C112.46 367.57 110.4 367.82 108.17 368.6C104.25 369.97 101.33 372.46 99.39 376.08C97.45 379.7 96.49 384.51 96.49 390.51C96.49 396.32 97.42 400.41 99.29 402.79C101.15 405.17 103.87 405.74 107.44 404.5C108.51 404.13 109.44 403.7 110.24 403.23C111.03 402.75 111.67 402.23 112.16 401.66ZM130.81 361.48L130.81 352.39L161.91 341.55L161.91 350.64L151.52 354.26L151.52 388.3L161.91 384.68L161.91 393.77L130.81 404.61L130.81 395.52L141.2 391.9L141.2 357.86L130.81 361.48ZM171.14 364.5C171.14 355.57 172.68 348.28 175.77 342.63C178.86 336.98 183.42 333.11 189.47 331C195.53 328.89 200.11 329.58 203.2 333.07C206.29 336.57 207.83 342.78 207.83 351.71C207.83 360.62 206.28 367.9 203.2 373.54C200.11 379.19 195.53 383.07 189.47 385.18C183.43 387.28 178.87 386.59 175.77 383.1C172.69 379.61 171.14 373.4 171.14 364.5ZM189.47 340.27C186.83 341.19 184.91 343.26 183.7 346.5C182.49 349.73 181.88 354.49 181.88 360.76C181.88 367.01 182.49 371.33 183.7 373.72C184.91 376.11 186.84 376.84 189.47 375.92C192.13 374.99 194.06 372.92 195.28 369.68C196.49 366.45 197.1 361.71 197.1 355.46C197.1 349.19 196.49 344.86 195.28 342.47C194.07 340.07 192.13 339.34 189.47 340.27ZM215.22 322.97L226.31 319.11L240.86 351.99L240.86 314.04L249.96 310.87L249.96 363.1L238.94 366.94L224.32 334.08L224.32 372.04L215.22 375.21L215.22 322.97ZM269.44 304.08L282.07 299.68L296.17 346.99L285.85 350.59L282.63 338.8L268.81 343.61L265.66 357.62L255.34 361.22L269.44 304.08ZM275.74 311.33L270.88 334.4L280.64 331L275.74 311.33ZM305.19 343.85L305.19 291.62L315.51 288.02L315.51 331.15L337.58 323.46L337.58 332.55L305.19 343.85Z"/>
</clipPath>
<g clip-path="url(#ClipPath)">
<path d="M-59.01-136.45L1220.99-136.45L1220.99-136.45L1220.99 887.55L1220.99 887.55L-59.01 887.55L-59.01 887.55L-59.01-136.45L-59.01-136.45Z" fill="url(#LinearGradient_5)" fill-rule="nonzero" opacity="1" stroke="none"/>
</g>
</g>
<g opacity="1">
<path d="M751.77 619.3C757.25 560.01 665.29 448.3 665.29 448.3C665.29 448.3 555.04 510.07 538.77 619.3L751.77 619.3Z" fill="url(#LinearGradient_6)" fill-rule="nonzero" opacity="1" stroke="none"/>
<path d="M618.27 485.9C688.65 552.55 800.52 427.63 711.11 339.78C621.7 251.93 541.78 413.47 618.27 485.9Z" fill="#edd3b7" fill-rule="nonzero" opacity="1" stroke="none"/>
<path d="M715.56 306.77C694.45 288.63 664.01 283.9 637.41 293.81C597.59 308.65 526.61 387.58 589.61 468.58C632.42 523.63 575.31 540.58 661.61 567.58C767.7 600.77 636.61 491.58 636.61 491.58C636.61 491.58 668.6 493.65 701.86 473.58C761.52 437.58 769.66 353.26 715.56 306.77Z" fill="#383838" fill-rule="nonzero" opacity="1" stroke="none"/>
</g>
<g opacity="1">
<path d="M898.8 313.96C984.3 313.96 1005.68 335.34 1005.68 399.46C1005.68 463.58 962.93 484.96 920.18 484.96C877.43 484.96 834.68 442.21 834.68 399.46C834.68 356.71 856.05 313.96 898.8 313.96Z" fill="#edd3b7" fill-rule="nonzero" opacity="1" stroke="none"/>
<path d="M879.68 457.96C879.68 457.96 897.68 475.96 897.68 511.96C897.68 529.96 969.68 511.96 969.68 502.96C969.68 493.96 969.68 448.96 942.68 448.96C915.68 448.96 879.68 457.96 879.68 457.96Z" fill="#edd3b7" fill-rule="nonzero" opacity="1" stroke="none"/>
<path d="M905.17 359.93C882.49 354.38 861.56 343.14 845.21 326.48C839.12 320.28 833.07 314.29 834.68 311.96C870.68 259.96 1041.55 303.9 1020.14 370.04C1011.11 397.92 1005.68 426.84 1005.68 456.15L1005.68 474.44C1005.68 479.58 998.34 480.5 997.09 475.51C985.99 431.47 960.96 373.57 905.17 359.93Z" fill="#383838" fill-rule="nonzero" opacity="1" stroke="none"/>
<path d="M941.68 387.96C941.68 387.96 977.68 360.96 986.68 387.96C995.68 414.96 959.68 432.96 959.68 432.96L941.68 387.96Z" fill="#edd3b7" fill-rule="nonzero" opacity="1" stroke="none"/>
<path d="M859.082 393.274C854.146 392.681 850.867 386.199 851.756 378.796C852.646 371.393 857.368 365.873 862.303 366.466C867.238 367.059 870.518 373.541 869.628 380.944C868.739 388.347 864.017 393.867 859.082 393.274Z" fill="#383838" fill-rule="nonzero" opacity="1" stroke="none"/>
<path d="M853.67 366.76C852.63 369.71 863.05 366.17 877.08 386.05C878.73 388.39 878.87 379.87 877.47 377.28C876.18 374.9 874.16 371.78 871.64 370C864.33 364.81 854.35 364.81 853.67 366.76Z" fill="#383838" fill-rule="nonzero" opacity="1" stroke="none"/>
<path d="M861.68 439.96C870.68 439.96 879.45 437.26 879.68 429.96C879.82 425.66 870.68 439.96 852.68 429.96C846.29 426.42 852.68 439.96 861.68 439.96Z" fill="#c56959" fill-rule="nonzero" opacity="1" stroke="none"/>
<path d="M838.61 376.96L825.32 402.88C820.83 411.65 827.36 421.96 837.41 421.96L861.67 421.96" fill="#edd3b7" fill-rule="nonzero" opacity="1" stroke="none"/>
<path d="M922.68 619.96L1014.11 607.77C1008.9 475.97 969.68 475.96 969.68 475.96C888.15 469.17 852.78 570.09 840.34 619.96C840.34 619.96 922.68 619.96 922.68 619.96Z" fill="url(#LinearGradient_7)" fill-rule="nonzero" opacity="1" stroke="none"/>
</g>
<g opacity="1">
<path d="M443.69 507.01C443.69 507.01 417.68 529.95 417.68 583.95L336.68 547.95C336.68 547.95 345.68 520.95 381.68 493.95C417.68 466.95 443.69 507.01 443.69 507.01Z" fill="#edd3b7" fill-rule="nonzero" opacity="1" stroke="none"/>
<path d="M501.09 367.95C501.09 367.95 368.02 366.31 368.02 472.37C368.02 512.23 407.67 513.8 443.69 507.02C476.97 500.75 501.09 471.72 501.09 437.86C501.09 437.86 501.09 367.95 501.09 367.95Z" fill="#edd3b7" fill-rule="nonzero" opacity="1" stroke="none"/>
<path d="M444.19 421.12C444.19 421.12 398.67 421.12 398.67 443.88C398.67 466.64 432.81 489.4 432.81 489.4L444.19 421.12Z" fill="#edd3b7" fill-rule="nonzero" opacity="1" stroke="none"/>
<path d="M472.07 419.38C472.07 414.409 476.099 410.38 481.07 410.38C486.041 410.38 490.07 414.409 490.07 419.38C490.07 424.351 486.041 428.38 481.07 428.38C476.099 428.38 472.07 424.351 472.07 419.38Z" fill="#383838" fill-rule="nonzero" opacity="1" stroke="none"/>
<path d="M459.87 418.96C460.71 421.32 466.69 412.82 488.33 415.76C490.88 416.11 486.28 411.05 483.79 410.4C481.5 409.81 478.24 409.24 475.34 409.75C466.91 411.23 459.32 417.39 459.87 418.96Z" fill="#383838" fill-rule="nonzero" opacity="1" stroke="none"/>
<path d="M454.09 460.8C456.58 458.71 456.76 469.71 480.81 475.11C483.65 475.75 475.45 479.12 472.46 478.81C469.71 478.53 466 477.84 463.41 476.19C455.88 471.41 452.44 462.18 454.09 460.8Z" fill="#c56959" fill-rule="nonzero" opacity="1" stroke="none"/>
<path d="M501.12 435.06L507.71 448.24C509.94 452.7 506.7 457.94 501.71 457.94L489.67 457.94" fill="#edd3b7" fill-rule="nonzero" opacity="1" stroke="none"/>
<path d="M426.68 619.95L479.54 619.95C474.64 563.03 452.69 502.95 390.68 502.95C319.13 502.95 298.94 562.19 293.45 602.19L426.68 619.95Z" fill="url(#LinearGradient_8)" fill-rule="nonzero" opacity="1" stroke="none"/>
<path d="M505.66 334.35C513.66 354.69 505.3 377.8 486.19 388.4C468.17 398.4 445.33 413.73 432.82 432.5C410.06 466.64 444.2 512.16 364.54 512.16C284.88 512.16 222.92 303.53 455.57 295.95C455.57 295.95 490.56 295.95 505.66 334.35Z" fill="#383838" fill-rule="nonzero" opacity="1" stroke="none"/>
</g>
<path d="M461.01 55.58C461.01 47.9474 467.197 41.76 474.83 41.76C482.463 41.76 488.65 47.9474 488.65 55.58C488.65 63.2126 482.463 69.4 474.83 69.4C467.197 69.4 461.01 63.2126 461.01 55.58Z" fill="url(#LinearGradient_9)" fill-rule="nonzero" opacity="1" stroke="none"/>
<path d="M498.22 63.66C498.22 56.0274 504.407 49.84 512.04 49.84C519.673 49.84 525.86 56.0274 525.86 63.66C525.86 71.2926 519.673 77.48 512.04 77.48C504.407 77.48 498.22 71.2926 498.22 63.66Z" fill="url(#LinearGradient_10)" fill-rule="nonzero" opacity="1" stroke="none"/>
<path d="M534.78 72.37C534.78 64.7374 540.967 58.55 548.6 58.55C556.233 58.55 562.42 64.7374 562.42 72.37C562.42 80.0026 556.233 86.19 548.6 86.19C540.967 86.19 534.78 80.0026 534.78 72.37Z" fill="url(#LinearGradient_11)" fill-rule="nonzero" opacity="1" stroke="none"/>
<path d="M854.3 168.57L564 104.31L564.46 113.44L854.64 177.92L854.3 168.57Z" fill="url(#LinearGradient_12)" fill-rule="nonzero" opacity="1" stroke="none"/>
<path d="M853.79 188.07L563.49 123.81L563.95 132.94L854.13 197.42L853.79 188.07Z" fill="url(#LinearGradient_13)" fill-rule="nonzero" opacity="1" stroke="none"/>
<path d="M826.9 202.42L536.6 138.16L537.06 147.29L827.24 211.77L826.9 202.42Z" fill="url(#LinearGradient_14)" fill-rule="nonzero" opacity="1" stroke="none"/>
<path d="M853.79 227.56L563.49 163.3L563.95 172.43L854.13 236.91L853.79 227.56Z" fill="url(#LinearGradient_15)" fill-rule="nonzero" opacity="1" stroke="none"/>
<path d="M826.3 240.48L536 176.22L536.46 185.35L826.64 249.83L826.3 240.48Z" fill="url(#LinearGradient_16)" fill-rule="nonzero" opacity="1" stroke="none"/>
<path d="M558.74 103.26L513.04 93.48L513.5 102.61L559.08 112.61L558.74 103.26Z" fill="url(#LinearGradient_17)" fill-rule="nonzero" opacity="1" stroke="none"/>
<path d="M558.15 122.21L512.45 112.43L512.91 121.56L558.49 131.56L558.15 122.21Z" fill="url(#LinearGradient_18)" fill-rule="nonzero" opacity="1" stroke="none"/>
<path d="M558.46 162.46L512.76 152.68L513.22 161.81L558.8 171.81L558.46 162.46Z" fill="url(#LinearGradient_19)" fill-rule="nonzero" opacity="1" stroke="none"/>
</g>
</svg>
