<svg width="100%" height="100%" id="svg" viewBox="0 0 1440 600" xmlns="http://www.w3.org/2000/svg" class="transition duration-300 ease-in-out delay-150"><defs><linearGradient id="gradient" x1="0%" y1="50%" x2="100%" y2="50%"><stop offset="5%" stop-color="#f78da7"></stop><stop offset="95%" stop-color="#fcb900"></stop></linearGradient></defs><path d="M 0,600 C 0,600 0,150 0,150 C 65.14599793885262,181.0395053246307 130.29199587770523,212.07901064926142 197,201 C 263.70800412229477,189.92098935073858 331.9780144280317,136.723462727585 407,121 C 482.0219855719683,105.27653727241498 563.7959464101683,127.02713844039849 632,143 C 700.2040535898317,158.9728615596015 754.8381999312952,169.16798351082105 827,165 C 899.1618000687048,160.83201648917895 988.8512538646512,142.30092751631742 1065,136 C 1141.1487461353488,129.69907248368258 1203.7567846100997,135.62830642390932 1264,140 C 1324.2432153899003,144.37169357609068 1382.1216076949502,147.18584678804535 1440,150 C 1440,150 1440,600 1440,600 Z" stroke="none" stroke-width="0" fill="url(#gradient)" fill-opacity="0.4" class="transition-all duration-300 ease-in-out delay-150 path-0"></path><defs><linearGradient id="gradient" x1="0%" y1="50%" x2="100%" y2="50%"><stop offset="5%" stop-color="#f78da7"></stop><stop offset="95%" stop-color="#fcb900"></stop></linearGradient></defs><path d="M 0,600 C 0,600 0,300 0,300 C 69.69220199244245,303.05805565097904 139.3844039848849,306.1161113019581 200,300 C 260.6155960151151,293.8838886980419 312.1545860529028,278.59361044314676 378,267 C 443.8454139470972,255.40638955685327 523.997251803504,247.5094469254551 605,250 C 686.002748196496,252.4905530745449 767.8564067330815,265.3686018550327 843,274 C 918.1435932669185,282.6313981449673 986.5771212641703,287.0161456544143 1046,288 C 1105.4228787358297,288.9838543455857 1155.8351082102372,286.5668155273102 1220,288 C 1284.1648917897628,289.4331844726898 1362.0824458948814,294.7165922363449 1440,300 C 1440,300 1440,600 1440,600 Z" stroke="none" stroke-width="0" fill="url(#gradient)" fill-opacity="0.53" class="transition-all duration-300 ease-in-out delay-150 path-1"></path><defs><linearGradient id="gradient" x1="0%" y1="50%" x2="100%" y2="50%"><stop offset="5%" stop-color="#f78da7"></stop><stop offset="95%" stop-color="#fcb900"></stop></linearGradient></defs><path d="M 0,600 C 0,600 0,450 0,450 C 58.12366884232223,450.4259704568876 116.24733768464446,450.8519409137753 178,449 C 239.75266231535554,447.1480590862247 305.13431810374436,443.01820680178633 379,432 C 452.86568189625564,420.98179319821367 535.2153899003778,403.07523187907935 618,397 C 700.7846100996222,390.92476812092065 784.0041222947442,396.68086568189625 845,417 C 905.9958777052558,437.31913431810375 944.7681209206457,472.2013053933356 1007,468 C 1069.2318790793543,463.7986946066644 1154.9233940226727,420.5139127447613 1231,411 C 1307.0766059773273,401.4860872552387 1373.5383029886636,425.7430436276194 1440,450 C 1440,450 1440,600 1440,600 Z" stroke="none" stroke-width="0" fill="url(#gradient)" fill-opacity="1" class="transition-all duration-300 ease-in-out delay-150 path-2"></path></svg>